<svg width="16" height="11" viewBox="0 0 16 11" fill="none" xmlns="http://www.w3.org/2000/svg">
<g id="United Kingdom (GB)">
<g clip-path="url(#clip0_153_673)">
<path id="Vector" d="M0 0H16V11H0V0Z" fill="#012169"/>
<path id="Vector_2" d="M1.875 0L7.975 4.14792L14.05 0H16V1.42083L10 5.52292L16 9.60208V11H14L8 6.89792L2.025 11H0V9.625L5.975 5.54583L0 1.46667V0H1.875Z" fill="white"/>
<path id="Vector_3" d="M10.6 6.43958L16 10.0833V11L9.225 6.43958H10.6ZM6 6.89792L6.15 7.7L1.35 11H0L6 6.89792ZM16 0V0.06875L9.775 4.37708L9.825 3.36875L14.75 0H16ZM0 0L5.975 4.03333H4.475L0 0.9625V0Z" fill="#C8102E"/>
<path id="Vector_4" d="M6.025 0V11H10.025V0H6.025ZM0 3.66667V7.33333H16V3.66667H0Z" fill="white"/>
<path id="Vector_5" d="M0 4.42292V6.62292H16V4.42292H0ZM6.825 0V11H9.225V0H6.825Z" fill="#C8102E"/>
</g>
</g>
<defs>
<clipPath id="clip0_153_673">
<rect width="16" height="11" rx="1.5" fill="white"/>
</clipPath>
</defs>
</svg>
