<svg width="80" height="101" viewBox="0 0 80 101" fill="none" xmlns="http://www.w3.org/2000/svg">
<g id="Group">
<path id="Vector" d="M53.8479 0.965983C53.8479 0.965983 49.8524 1.17037 44.9489 1.37476C32.0545 1.98792 24.2452 2.39669 18.9784 2.80546C16.4359 2.80546 11.3508 3.21424 7.53691 3.41862C2.08856 3.41862 0.454029 3.8274 0.272418 4.03179C-0.0908059 4.44056 -0.0908059 5.05372 0.272418 8.73269C0.454029 11.1853 0.81727 18.3389 0.998881 24.8792C0.998881 31.4196 1.36212 37.3468 1.54373 38.3688C1.54373 39.1863 1.90693 40.8214 1.90693 41.8434C1.90693 42.8653 1.90693 44.296 2.27016 44.9092C2.27016 45.5223 2.63339 46.5443 2.63339 47.3618C2.815 49.4057 2.9966 49.6101 9.53462 49.4057C12.8036 49.4057 16.4359 49.2013 17.8888 48.9969H20.4313V49.8144C20.4313 50.632 20.4313 51.0408 21.1578 51.8583C21.1578 51.8583 22.4291 52.199 24.9716 52.8802H28.059L26.6061 54.7197C24.4268 57.5811 24.2452 58.6031 24.4268 61.6689C24.4268 63.0996 24.79 64.3259 24.9716 64.5303C25.1532 64.7347 26.9694 64.7347 32.5993 64.5303C42.0431 63.9171 47.4915 63.0996 48.2179 62.282C48.3996 62.0777 48.5812 61.2601 48.3996 59.4206V56.7636L46.0386 54.1066C44.7673 52.6759 43.8593 51.4495 43.8593 51.4495C43.8593 51.4495 44.5857 51.2452 45.3122 51.0408C46.9467 50.632 47.4915 50.0188 47.4915 48.3837C47.4915 47.1574 47.4915 46.953 48.2179 46.7486C48.5812 46.7486 51.8502 46.3399 55.664 46.1355C59.4779 45.7267 62.7469 45.5223 63.1101 45.3179C63.6549 45.3179 63.8365 44.7048 63.8365 44.0916C63.8365 43.2741 63.8365 43.0697 64.563 43.2741C64.9262 43.2741 65.8343 43.6828 66.5607 44.0916C67.6504 44.5004 67.832 44.9092 68.5584 46.5443C69.2849 48.3837 69.2849 48.5881 69.1033 52.6759C69.1033 55.1285 68.9217 59.625 68.7401 63.0996C68.7401 66.3698 68.3768 69.64 68.3768 70.0488C68.0136 70.8663 66.5607 71.8882 65.471 71.8882C65.1078 71.8882 64.7446 72.0926 64.563 72.5014C64.0182 72.9102 64.0182 72.9102 64.1998 71.6838V70.2531H62.3836C61.294 70.2531 58.025 70.4575 54.9376 70.6619C52.0318 70.8663 43.8592 71.4795 36.7764 72.0926C29.6935 72.7058 21.3394 73.3189 18.0704 73.5233C14.8014 73.7277 10.4427 73.9321 8.08173 73.9321C5.17594 73.9321 3.90466 73.9321 3.72305 74.3409C3.72305 74.5453 3.72305 75.5672 3.72305 76.5891C3.72305 77.6111 3.90466 80.6769 3.72305 83.3339C3.72305 87.0129 3.72306 88.2392 4.08628 88.648C4.44951 89.0567 4.99434 89.2611 9.89785 88.8523C21.1578 88.4436 49.6708 86.6041 53.8479 86.1953C55.3008 86.1953 57.1169 85.7865 58.025 85.7865C60.9307 85.7865 64.7446 85.1734 64.9262 84.5602C64.9262 84.3558 64.9262 83.9471 64.563 83.7427C64.1998 83.5383 64.0182 82.7207 64.0182 80.2681C64.0182 76.5891 63.8365 76.7935 67.2872 76.3847C71.4642 75.976 73.2804 76.7935 74.0068 79.6549C74.37 80.8813 74.37 81.4944 74.0068 82.9251L73.6436 84.5602H72.3723C72.3723 84.5602 70.7378 84.7646 70.1929 85.1734L69.2849 85.5822V90.8962C69.2849 95.5971 69.2849 96.4147 69.8297 97.641C70.7378 99.6849 72.1907 100.298 75.2781 100.298C79.6368 100.298 79.8184 99.8892 80 92.1225V86.6041L79.2735 85.5822C78.5471 84.7646 78.1839 84.5602 76.9126 84.5602C75.0965 84.5602 75.0965 84.5602 75.6413 82.1076C76.0045 80.4725 75.0965 77.2023 74.0068 75.976C72.5539 74.7496 71.4643 74.3409 68.1952 74.5453C66.5607 74.5453 64.9262 74.954 64.563 74.954C63.8365 74.954 63.8365 74.954 63.8365 74.1365C63.8365 73.3189 63.8365 73.1145 64.3814 73.5233C64.9262 73.9321 66.7423 73.5233 68.1952 72.5014C69.6481 71.2751 70.0113 70.4575 70.0113 66.5742C70.0113 64.7347 70.0113 60.647 70.3746 57.5812C70.9194 50.632 70.7378 48.3837 69.6481 45.5223C68.7401 43.2741 68.0136 42.6609 65.1078 41.8434C64.3814 41.8434 63.8365 41.2302 63.8365 41.0258C63.6549 37.3468 63.4733 7.09759 63.8365 4.84933C64.0181 2.60108 64.0181 1.57914 63.8365 1.17037C63.6549 0.965983 62.2021 0.761597 58.933 0.761597C56.3905 0.761597 54.2111 0.761597 54.2111 0.761597L53.8479 0.965983ZM62.0204 3.21424C62.0204 3.21424 61.8388 10.9809 61.8388 19.7696C61.8388 29.9889 61.8388 35.7118 61.4756 35.7118C60.5675 36.1205 28.6039 37.7556 13.3485 38.1644C10.8059 38.1644 8.44495 38.3688 7.90011 38.5732C7.35528 38.5732 6.99207 38.5732 6.99207 38.5732C6.99207 38.5732 6.99205 38.3688 6.44722 38.5732C6.084 38.5732 5.35755 38.9819 4.81271 38.9819C3.72304 38.9819 3.17822 39.5951 3.72305 40.4126C3.72305 40.617 3.90466 41.0258 3.72305 41.0258V41.2302C3.72305 41.2302 4.08629 41.2302 4.2679 40.8214C4.2679 40.8214 4.99434 40.4126 5.53917 40.4126H6.62884L4.99433 42.0477L3.35982 43.6828V41.4346L2.81501 39.1863L4.44951 37.3468L6.08402 35.5074L4.44951 36.9381C4.44951 36.9381 2.815 38.3688 2.63339 38.1644C2.27017 37.5512 2.63338 36.7337 3.54143 35.7118C4.08627 35.0986 4.63113 34.4854 4.63113 34.281C4.63113 34.0767 4.26789 34.4854 3.72305 35.0986C2.81499 36.1205 2.63339 36.1205 2.45177 35.7118C1.90694 34.6898 2.08854 33.8723 3.54143 32.8503C4.26788 32.2372 5.17595 31.624 5.35756 31.2152C5.53917 30.8065 5.17596 31.2152 4.2679 31.8284C2.815 32.9185 2.08854 33.1229 2.08854 32.4416C2.08854 32.4416 2.45178 31.2152 4.2679 29.5801C5.53918 28.5582 6.44722 27.5363 6.44722 27.5363C6.44722 27.5363 5.35756 28.1494 2.45177 30.8065C2.08855 31.0109 2.08854 30.8065 2.08854 29.9889C2.08854 28.967 2.27016 28.7626 3.90467 27.3319C4.81273 26.5143 5.90238 25.4924 6.2656 25.0836C6.62883 24.6749 5.7208 25.0836 4.63113 26.31C3.05716 27.6725 2.27016 28.0132 2.27016 27.3319C2.27016 27.3319 2.27015 26.31 3.35982 25.288C4.08627 24.6749 5.17596 23.4485 5.90241 22.8354C6.62885 22.0178 6.08399 22.4266 4.81271 23.6529L2.45177 25.9012V24.6749C2.45177 23.6529 2.45177 23.2442 3.72305 21.8134C4.63111 20.9959 4.99435 20.3827 4.63113 20.7915C4.26791 20.9959 3.72304 21.6091 3.1782 22.2222L2.27016 23.2442V22.0178C2.27016 22.0178 2.45179 20.5871 2.99662 20.1784C3.35985 19.7696 3.72305 19.5652 3.54143 19.5652C3.54143 19.5652 2.99662 19.7696 2.81501 20.1784C2.27017 20.5871 2.27016 20.5871 2.27016 19.7696C2.27016 18.952 2.63337 18.5433 4.99433 16.4994C6.44722 15.2731 7.7185 14.2511 7.7185 14.0467C7.7185 14.0467 6.81046 14.6599 5.53917 15.6818C2.45177 18.3389 2.27016 18.3389 2.27016 17.1125C2.27016 16.295 2.6334 15.8862 4.44951 14.2511C5.53918 13.2292 6.62884 12.2073 6.81045 12.0029C6.99206 11.5941 7.17369 11.5941 4.2679 14.0467C3.17823 14.8643 2.27016 15.6818 2.27016 15.4775C2.27016 15.4775 2.27016 14.8643 2.27016 14.4555C2.27016 13.8424 2.6334 13.2292 4.44951 11.5941C5.7208 10.5722 6.81046 9.34585 7.17368 9.14146C7.35529 8.73269 6.44722 9.55023 4.99433 10.7766L2.45177 13.0248V11.7985C2.08855 10.5722 2.08854 10.3678 3.35982 9.14146C4.6311 7.91514 4.6311 7.91514 3.54143 8.73269C2.81499 9.34585 2.27016 9.75462 2.27016 9.75462C1.90693 9.75462 1.90693 8.5283 2.27016 8.11952C2.45177 7.71075 2.45177 7.91514 2.27016 8.11952C2.08855 8.5283 1.90693 8.11952 2.08854 7.71075C2.08854 7.30198 2.08854 6.8932 2.08854 6.8932C2.08854 6.8932 1.90693 6.28004 1.90693 5.87127C1.90693 5.25811 1.90694 5.05372 2.45177 5.05372C2.815 5.05372 2.815 5.05372 2.45177 5.05372C2.27016 5.05372 2.08854 5.25811 2.08854 5.46249C2.08854 5.66688 2.27017 5.46249 2.63339 5.46249C2.99661 5.05372 4.81272 4.84933 11.1691 4.64495C15.7094 4.64495 21.7026 4.03179 24.79 3.8274C27.8774 3.62301 33.3258 3.21424 36.958 3.21424C40.5902 3.21424 47.3099 2.80546 51.8502 2.60108C56.3905 2.60108 60.7491 2.1923 61.294 2.1923C62.3836 2.1923 62.3836 2.1923 62.202 2.80546L62.0204 3.21424ZM62.0204 40.617C62.0204 42.4565 62.0204 43.8872 61.6572 43.8872C61.294 43.8872 61.294 43.8872 60.9307 44.0916C60.5675 44.0916 60.5675 44.0916 60.7491 43.8872C60.7491 43.4785 60.7492 43.4785 60.3859 43.8872C59.6595 44.296 59.1146 44.296 56.5721 44.5004H54.2111L56.0273 43.4785C56.9353 42.8653 57.8433 42.0477 57.8433 42.0477C57.8433 42.0477 56.0273 43.0697 54.5744 44.296C54.0295 44.7048 53.1214 44.9092 52.2134 45.1135C48.2179 45.3179 47.1283 45.5223 45.6754 45.7267C44.7673 45.7267 44.2225 45.7267 44.2225 45.7267C44.2225 45.7267 45.4938 44.7048 46.9467 43.4785C48.3996 42.4565 49.6708 41.4346 49.6708 41.4346C49.6708 41.4346 48.218 42.2521 45.4938 44.296C44.0409 45.5223 43.1328 45.9311 42.0431 46.1355C41.3167 46.1355 40.5902 46.1355 40.5902 46.1355C40.5902 46.1355 41.8615 44.9092 43.496 43.4785C46.765 40.8214 46.9466 40.617 46.0386 41.0258C45.6754 41.0258 44.2225 42.2521 42.9512 43.4785C40.0454 45.9311 38.9557 46.5443 37.6845 46.5443C36.7764 46.5443 36.958 46.5443 39.1374 44.7048C40.4086 43.6828 41.8615 42.4565 42.588 41.8434C43.3144 41.0258 42.9512 41.2302 41.6799 42.4565C38.4109 45.1135 36.0499 46.5443 34.9603 46.3399C34.0522 46.3399 34.2338 46.3399 36.05 44.7048C37.1396 43.8872 38.0477 43.2741 38.0477 43.0697C38.0477 43.0697 36.958 43.6828 35.6867 44.7048C34.2338 45.7267 32.9625 46.3399 32.2361 46.5443H30.9648L31.6913 45.9311C32.0545 45.5223 33.5074 44.296 34.7787 43.0697C36.05 42.0477 37.1396 41.0258 37.1396 41.0258C37.1396 40.8214 36.0499 41.639 32.5993 44.5004C30.42 46.3399 29.8751 46.7486 28.9671 46.5443C28.4222 46.5443 27.5142 46.5443 26.7878 46.5443C26.0613 46.5443 25.3349 46.5443 25.1532 46.5443C24.9716 46.5443 25.6981 45.7267 26.7878 44.9092C27.8774 44.0916 28.7855 43.2741 28.7855 43.2741C28.7855 43.2741 28.4223 43.2741 28.059 43.6828C25.1532 45.7267 23.7004 46.7486 22.7923 46.953H21.8842L23.1555 45.7267C24.2452 44.5004 24.2452 44.5004 23.5187 45.1135C22.9739 45.5223 22.2474 46.1355 21.8842 46.5443C21.521 46.953 20.9762 47.1574 20.4313 47.1574C19.7049 47.1574 19.8865 47.1574 21.521 45.3179C24.79 42.2521 24.79 42.2521 23.7003 43.0697C23.1555 43.4785 21.8842 44.7048 20.7946 45.5223C19.3417 46.953 18.7968 47.3618 17.7072 47.3618H16.4359L18.6152 45.5223C19.8865 44.5004 20.9762 43.4785 20.9762 43.2741C20.9762 43.0697 20.2497 43.6828 19.1601 44.7048C16.4359 47.1574 15.891 47.5662 14.4381 47.7706C12.9853 47.975 12.9853 47.975 16.6175 45.1135C18.252 43.8872 19.5233 42.6609 19.7049 42.4565C19.7049 42.4565 19.7049 42.4565 19.3417 42.4565C18.4336 43.2741 13.3485 47.1574 13.3485 46.953C13.3485 46.953 13.1669 46.953 12.8036 47.3618C12.4404 47.7706 11.8956 47.975 11.1691 47.975H9.89785L10.8059 47.1574C10.8059 47.1574 13.1669 45.1135 14.983 43.6828C16.7991 42.2521 18.252 41.0258 18.252 41.0258C18.252 41.0258 18.0704 41.0258 13.7117 44.296C11.714 45.9311 9.71623 47.3618 9.53462 47.5662C9.1714 47.975 8.26334 48.1794 8.26334 47.975C8.26334 47.975 10.9875 45.1135 12.9853 43.4785C13.3485 43.0697 13.1669 43.2741 12.622 43.4785C12.0772 43.8872 10.9875 44.7048 10.0795 45.7267C9.17141 46.5443 8.26334 47.3618 8.26334 47.3618C8.26334 47.3618 7.90011 47.3618 7.90011 47.975C7.90011 48.3837 7.53689 48.5881 6.62884 48.5881H5.53917L7.7185 46.3399C8.98978 45.1136 10.6243 43.2741 11.3507 42.6609C12.0772 41.8434 12.622 41.2302 12.4404 41.2302C12.4404 41.2302 10.9875 42.4565 9.353 44.0916C6.08399 47.3618 4.99435 48.3837 4.44951 48.3837C3.72307 48.3837 4.08627 47.5662 5.17594 46.7486C5.72078 46.3399 7.35529 44.9092 8.62658 43.4785L10.9875 41.0258H13.8933C15.5278 41.0258 18.4336 40.617 20.4313 40.617C22.4291 40.617 25.6981 40.4126 27.8774 40.2083C31.6913 40.2083 37.1396 39.7995 48.7628 39.1863C59.4779 38.5732 60.9308 38.5732 61.1124 38.3688C61.1124 38.3688 61.4756 38.3688 61.6572 38.3688C62.0204 38.3688 62.0204 38.9819 62.0204 41.639V40.617ZM7.53691 41.2302C4.63113 44.0916 3.72305 44.9092 3.72305 44.5004C3.72305 43.8872 7.35528 40.4126 7.90011 40.4126C8.26334 40.4126 7.90014 40.617 7.53691 41.2302ZM9.17142 42.0477C6.62886 44.7048 4.63112 46.3399 4.2679 45.9311C3.54145 45.7267 3.72306 45.3179 5.72079 43.6828C6.62885 42.8653 7.7185 41.639 8.08173 41.2302C8.62656 40.617 8.98979 40.4126 9.71624 40.4126H10.8059L9.17142 42.0477ZM46.0386 48.1794C46.0386 48.1794 45.857 49.2013 44.7673 49.6101C44.0409 49.8144 41.8615 50.2232 39.8638 50.4276C35.8683 50.8364 25.6981 51.4495 25.5165 51.2452C25.5165 51.2452 26.0613 50.632 26.9694 49.8144L28.4223 48.5881L36.5948 47.975C41.1351 47.7706 44.9489 47.3618 44.9489 47.3618C44.9489 47.3618 45.3121 47.3618 45.6754 47.3618C46.2202 47.3618 46.2202 47.3618 46.2202 48.3837L46.0386 48.1794ZM26.7878 49.4057C24.6084 51.2452 23.1555 51.8583 22.4291 50.8364C22.0658 50.4276 22.0658 50.2232 22.4291 49.6101C22.6107 49.2013 22.6107 48.9969 22.4291 49.2013H22.0658C22.0658 49.2013 22.7923 48.7925 23.5187 48.7925H24.9716L23.882 49.6101C23.1555 50.2232 22.6107 50.632 22.6107 50.8364C22.6107 51.0408 22.9739 50.8364 24.6084 49.4057C25.5165 48.5881 26.0613 48.3837 26.7878 48.3837H27.8774L26.7878 49.4057ZM41.4983 52.2671C41.4983 52.2671 43.1328 53.6978 44.2225 55.1285C46.4018 57.7855 46.4018 57.9899 44.2225 58.1943C43.496 58.1943 42.4064 58.1943 41.8615 58.1943C41.3167 58.1943 39.1373 58.1943 36.958 58.3987H32.9626L34.2338 57.3768L35.5051 56.1504L33.8706 57.3768C33.8706 57.3768 31.8729 58.8075 31.5097 58.8075C30.6016 59.0119 30.6016 58.8075 32.0545 57.5812C33.689 55.7417 33.5074 55.7417 31.5097 57.5812C30.6016 58.3987 29.8751 59.0119 29.6935 59.0119C29.6935 59.0119 30.42 57.9899 31.5097 56.7636C32.7809 55.5373 33.5074 54.7197 33.5074 54.7197C33.5074 54.7197 32.4177 55.7417 31.1464 56.7636C29.1487 58.8075 28.059 59.4206 27.151 59.4206C26.7878 59.4206 26.7878 59.4206 27.3326 58.8075C27.6958 58.3987 29.3303 56.968 30.7832 55.5373L33.5074 52.8802L36.7764 52.4715C38.5925 52.4715 40.0454 52.0627 40.227 52.0627C40.4086 52.0627 40.9534 52.0627 41.1351 52.2671H41.4983ZM32.7809 53.0846C32.7809 53.0846 26.4245 59.0119 26.2429 59.0119C25.3348 59.0119 29.8751 53.0846 30.7832 52.8802C32.7809 52.6759 33.1442 52.6759 32.7809 53.0846ZM46.7651 60.2382L46.9467 61.0557C46.9467 61.0557 38.0477 62.4864 37.1396 62.4864C36.5948 62.4864 36.4132 62.4864 36.5948 62.0777C36.5948 61.8733 36.5948 61.8733 36.2316 62.0777C35.6867 62.282 32.9626 62.8952 32.9626 62.6908C32.9626 62.6908 33.689 62.0777 34.4154 61.4645C35.5051 60.647 36.2316 60.2382 37.1396 60.2382C38.0477 60.2382 38.2293 60.2382 38.0477 60.6469C38.0477 61.0557 38.0477 61.0557 38.2293 60.6469C38.4109 60.4426 39.8638 60.0338 41.4983 60.0338C46.0386 59.625 46.2202 59.625 46.4018 60.4426L46.7651 60.2382ZM32.5993 60.6469C32.5993 60.6469 30.7832 62.6908 29.8752 62.8952H28.9671L29.6935 62.282C30.6016 61.0557 30.2384 61.0557 29.1487 62.282C28.059 63.5084 26.0613 63.7128 26.0613 62.6908C26.0613 62.0777 27.151 61.0557 27.8774 61.0557C28.4222 61.0557 28.4222 61.6689 27.8774 61.8733C27.6958 61.8733 27.5142 62.282 27.5142 62.4864C27.5142 62.4864 27.8774 62.4864 28.4223 61.8733C28.9671 61.2601 29.5119 61.0557 30.0568 61.0557C30.42 61.0557 30.9648 61.0557 31.1464 61.0557C31.6913 60.647 32.7809 60.647 32.7809 61.0557L32.5993 60.6469ZM34.5971 60.8513L34.0522 61.2601C34.0522 61.2601 33.5074 61.4645 33.1442 61.8733C31.8729 63.0996 31.328 62.6908 32.5993 61.4645C33.689 60.4426 35.5051 59.8294 34.7787 60.8513H34.5971ZM62.5653 75.7716V79.6549L61.6572 80.4725L60.7491 81.29V79.0418C60.3859 76.3848 60.0227 75.7716 59.2962 76.3847C58.933 76.5891 58.7514 77.2023 58.7514 78.4286V80.2681H57.4801C56.7537 80.2681 56.2088 80.2681 56.2088 79.8593C56.2088 79.8593 56.0272 79.8593 55.4824 80.0637C54.9376 80.2681 54.2111 80.6769 53.6663 80.6769H52.7582L54.2111 79.6549C56.7537 77.6111 56.2088 77.8155 53.4847 79.6549C52.395 80.4725 51.4869 80.8813 50.5789 81.0856C49.3076 81.0856 49.126 81.0856 49.6708 80.8812C51.3053 79.6549 51.3053 79.4505 49.6708 80.2681C48.7628 80.8813 47.4915 81.29 46.4018 81.4944H44.7673L45.6754 80.8812C46.9466 79.6549 43.496 82.1076 41.4983 83.7427C40.4086 84.7646 39.5006 85.1734 38.5925 85.3778C37.8661 85.3778 37.3212 85.3778 37.3212 85.3778C37.3212 85.3778 38.4109 84.3558 39.8638 83.3339C41.3167 82.312 42.4064 81.29 42.4064 81.0856C42.4064 81.0856 42.2248 81.0856 38.9557 83.5383C36.05 85.7865 35.6867 85.9909 33.689 85.7865H32.4177L33.3258 85.1734C33.8706 84.7646 34.9603 84.5602 35.6867 84.5602C37.3212 84.5602 37.8661 83.9471 37.5028 83.1295C37.1396 82.5164 37.5028 82.5163 38.2293 81.9032C38.7741 81.4944 39.319 81.0856 39.319 81.0856C39.319 81.0856 38.5925 81.29 37.8661 81.9032C36.958 82.5163 36.0499 82.9251 35.6867 82.9251C34.9603 82.9251 33.8706 83.7427 33.8706 84.1515C33.8706 84.3558 33.689 84.5602 33.3258 84.5602C32.9626 84.5602 32.5993 84.969 32.2361 85.1734C31.8729 85.5822 31.328 85.7865 30.9648 85.9909C30.2384 85.9909 30.42 85.9909 31.328 85.1734C33.3258 83.3339 36.4132 81.0856 37.3212 80.8812C37.6845 80.8812 38.0477 80.6769 38.0477 80.4725C38.0477 80.4725 38.5925 79.8593 39.5006 79.2462C40.227 78.8374 40.9535 78.4286 40.7719 78.2242C40.5903 78.0198 40.227 78.2242 39.6822 78.8374C38.9557 79.2462 38.4109 79.4505 37.8661 79.2462C37.1396 79.2462 36.958 79.0418 37.3212 78.633C37.5028 78.4286 37.3212 78.4286 36.7764 78.633C36.2315 79.0418 35.5051 79.2462 35.3235 79.2462C35.1419 79.2462 34.7787 79.2462 34.5971 79.6549C34.4155 80.2681 30.6016 83.3339 30.42 83.1295C30.42 82.7207 28.9671 82.7207 26.2429 83.1295C26.0613 83.1295 25.6981 83.5383 25.5165 83.9471C25.3349 84.3558 25.3349 84.5602 25.5165 84.3558H25.8797C25.8797 84.969 23.7004 86.1953 22.2475 86.1953H20.7946L22.0658 85.1734C23.7003 83.7427 26.2429 81.9032 28.059 80.8812C28.7855 80.4725 29.6935 79.8593 29.8752 79.4505C30.0568 79.0418 30.0568 79.0418 29.8752 79.0418C29.5119 79.2462 27.6958 79.0418 27.8774 78.633C28.059 78.2242 26.2429 79.0418 25.1532 79.8593C21.7026 82.7207 20.9762 83.1295 19.7049 83.1295H18.4336L19.5233 82.1076C20.9762 80.6769 20.6129 80.6769 18.9784 82.1076C18.4336 82.7207 17.5255 83.1295 17.1623 83.1295C16.7991 83.1295 16.6175 83.3339 16.6175 83.5383C16.6175 84.1515 15.3462 84.969 14.983 84.7646C14.8014 84.7646 14.8014 84.7646 14.983 84.7646C14.983 84.969 14.983 85.1734 14.8014 85.1734C14.6198 85.1734 14.0749 85.3778 13.5301 85.7865C12.8037 86.3997 12.4404 86.3997 9.17142 86.3997H5.53917V80.4725L6.81045 79.2462C7.90012 78.2242 8.26334 78.2242 9.71624 78.0198C10.6243 78.0198 11.5324 78.0198 11.714 78.0198C11.714 78.0198 11.714 78.4286 10.9875 79.0418C10.4427 79.6549 9.53465 80.2681 9.17142 80.2681C8.44498 80.2681 7.90011 80.8813 7.90011 81.4944C7.90011 81.6988 7.71852 82.1076 7.3553 82.312C6.44724 82.7207 6.08399 83.3339 6.2656 83.5383C6.2656 83.5383 6.81046 83.3339 7.3553 82.7207C8.08175 82.1076 8.62659 81.9032 9.17142 81.9032C10.0795 81.9032 10.0795 81.9032 9.53462 82.7207C9.35301 83.1295 8.80818 83.3339 8.44496 83.3339C7.90012 83.3339 7.17368 83.9471 7.17368 84.3558C7.17368 84.3558 7.17369 84.3558 7.53691 84.3558C7.53691 84.3558 7.53691 84.3558 7.3553 84.7646C6.99208 85.1734 6.81045 85.3778 6.62884 85.3778C6.26561 85.1734 5.90238 85.7865 6.2656 85.9909C6.2656 85.9909 6.81046 85.9909 7.3553 85.5822C8.26336 84.7646 8.98981 84.7646 9.17142 85.1734C9.17142 85.3778 9.35302 85.3778 9.89785 85.1734C10.8059 84.5602 11.1691 84.7646 10.9875 85.1734C10.8059 85.9909 11.1691 85.5822 14.6198 83.1295C17.3439 81.0856 17.7072 80.8813 19.5233 80.6769C21.1578 80.6769 21.521 80.2681 22.6107 79.4505C24.4268 78.0198 24.6084 77.6111 23.5187 78.4286C22.4291 79.0418 20.4313 79.0418 20.7946 78.4286C20.7946 78.2242 20.7946 78.2242 20.4313 78.4286C20.0681 78.4286 19.3417 78.8374 18.6152 79.0418C17.5255 79.0418 16.9807 79.8593 17.1623 80.4725C17.1623 80.4725 16.4359 81.29 15.3462 82.1076C13.8933 83.1295 13.1669 83.3339 12.8036 83.1295C12.2588 82.9251 12.8036 82.5163 15.7094 80.2681C18.0704 78.633 19.5233 77.6111 20.4313 77.4067C21.521 77.4067 21.7026 76.9979 21.7026 76.3847V75.5672H19.3417C18.0704 75.7716 16.7991 75.976 16.6175 76.1804C16.2543 76.3847 16.0727 77.6111 16.2543 77.6111C16.2543 77.6111 16.9807 77.6111 17.5255 77.6111C18.9784 77.6111 18.9784 77.6111 14.4381 80.8812C12.2588 82.5163 11.1691 83.1295 10.4427 83.1295H9.53462L10.2611 82.312C10.6243 81.9032 11.5323 81.4944 12.2588 81.29C13.1668 81.29 13.3485 80.8813 13.3485 80.2681C13.3485 79.8593 13.7117 79.2462 14.2565 78.633L15.1646 77.8154L14.0749 78.633C14.0749 78.633 12.4404 79.4505 11.714 79.6549H10.4427L11.3507 78.8374C11.8956 78.2242 12.622 77.6111 13.1669 77.2023C14.0749 76.5891 14.2565 76.1804 13.3485 76.3847C12.9853 76.3847 12.8036 76.3847 12.8036 76.3847C12.8036 76.1804 12.2588 75.976 10.6243 76.1804C8.26336 76.1804 7.90011 76.3847 7.90011 77.2023C7.90011 77.8155 5.9024 79.6549 5.53917 79.4505C4.99434 79.0418 5.53916 78.2242 6.44722 77.2023C7.17367 76.3847 7.17367 76.3847 6.62884 76.7935C6.084 77.4067 5.72079 77.4067 5.53917 77.2023C5.35756 76.9979 5.53919 76.5891 6.08402 76.1804C6.62886 75.5672 7.17368 75.3628 8.44496 75.3628C10.4427 75.3628 17.5256 74.954 25.3349 74.1365C34.7787 73.3189 42.7696 72.7058 49.3076 72.297C52.5766 72.297 56.3904 71.8882 57.6617 71.6838C58.933 71.6838 60.5675 71.4795 61.294 71.4795H62.5653V75.1584V75.7716ZM6.2656 75.7716C6.2656 75.7716 6.08402 75.976 5.90241 76.3847C5.53918 76.7935 5.53917 76.7935 5.53917 76.3847C5.53917 76.1804 5.72079 75.7716 5.90241 75.7716C6.08402 75.7716 6.2656 75.7716 6.2656 75.7716ZM62.5653 81.4944V83.3339H61.294C61.294 83.3339 57.1169 83.9471 53.3031 84.1515C49.6708 84.3558 45.857 84.7646 44.7673 84.7646C43.8593 84.7646 42.9512 84.7646 42.9512 84.7646C42.9512 84.7646 43.496 84.1514 44.2225 83.7427C45.1305 83.1295 46.0386 82.9251 47.1283 82.7207C48.2179 82.7207 48.7628 82.7207 48.5811 82.9251C48.5811 82.9251 48.2179 83.1295 48.0363 82.9251C47.8547 82.9251 47.4915 82.9251 47.4915 82.9251C47.1283 83.5383 47.6731 83.5383 48.9444 82.9251C50.3973 81.9032 51.3053 81.9032 50.9421 82.5163C50.9421 82.7207 50.9421 82.9251 50.9421 82.9251C52.395 82.1076 53.4847 81.6988 54.2111 81.9032C54.756 81.9032 55.4824 81.9032 55.664 81.9032C56.0272 81.9032 57.1169 81.6988 58.025 81.4944C59.4779 81.4944 60.0227 81.29 60.7491 80.4725C61.294 79.8593 61.6572 79.4505 61.8388 79.4505C61.8388 79.4505 61.8388 80.2681 61.8388 81.0856L62.5653 81.4944ZM26.6061 80.8812C26.6061 80.8812 27.151 80.8812 26.6061 81.29C26.4245 81.29 25.1532 82.312 23.882 83.1295C21.7026 84.7646 20.9762 84.969 20.9762 84.1515C20.9762 83.5383 24.9716 80.4725 25.5165 80.6769C25.6981 80.6769 26.2429 80.8812 26.4245 80.8812H26.6061ZM35.3235 80.8812C35.3235 80.8812 35.6867 80.8812 33.689 82.5163C32.7809 83.3339 31.8729 83.7427 31.6913 83.7427C31.6913 83.9471 31.1464 84.5602 30.42 84.969C29.1487 85.7865 27.8774 85.7865 28.059 84.969C28.059 84.7646 28.059 84.7646 27.5142 84.969C27.151 85.1734 26.2429 85.5822 25.5165 85.5822H24.2452L25.3349 84.969C26.0613 84.3558 26.6061 84.1515 27.5142 84.1515C28.4222 84.1515 28.6039 84.1515 28.2406 84.5602C27.5142 85.3778 28.4223 84.969 30.2384 83.3339C32.9626 80.8813 34.4155 79.8593 34.5971 80.2681C34.5971 80.2681 35.1419 80.4725 35.3235 80.2681V80.8812ZM44.9489 83.1295C44.9489 83.1295 44.4041 83.5383 43.8593 83.9471C43.3144 84.3558 42.7696 84.5602 42.9512 84.3558C42.9512 84.1515 42.9512 84.3558 42.4064 84.3558C42.0432 84.5602 41.4983 84.7646 41.1351 84.7646C40.7718 84.7646 41.1351 84.1514 42.588 82.9251L44.5857 81.29V82.1076L44.9489 83.1295ZM17.8888 84.969C18.7968 85.3778 18.9784 85.3778 18.4336 85.9909C18.0704 86.1953 17.3439 86.3997 16.7991 86.6041C16.2542 86.6041 15.3462 86.6041 14.8014 86.8085C14.0749 86.8085 14.0749 86.8085 15.3462 85.7865C16.0726 85.1734 16.7991 84.7646 16.7991 84.7646C16.7991 84.7646 17.3439 84.7646 17.8888 85.1734V84.969ZM21.3394 85.1734C21.3394 85.1734 21.1578 85.1734 20.9762 85.1734C20.9762 85.1734 20.6129 85.1734 20.4313 85.3778C20.4313 85.5822 19.8865 85.9909 19.3417 85.9909C19.3417 85.9909 19.2206 85.8547 18.9784 85.5822C18.9784 85.5822 20.0681 84.7646 20.9762 84.7646C21.1578 84.7646 21.3394 84.7646 21.1578 84.969L21.3394 85.1734ZM73.8252 86.1953C75.0965 87.626 73.462 89.6699 71.4642 89.2611C71.4642 89.2611 72.0091 88.648 72.5539 87.626C73.2804 86.8085 73.462 86.3997 73.0987 86.8085C71.2826 88.4436 71.4642 88.4436 71.4642 86.8085C71.4642 85.5822 71.4642 85.5822 72.3723 85.5822C72.9171 85.5822 73.462 85.7865 73.8252 86.1953ZM78.3655 85.7865C78.3655 85.7865 78.9103 86.3997 78.9103 87.626V89.2611H77.639C76.0045 89.2611 75.8229 89.2611 75.8229 87.0129V85.5822H76.9126C76.9126 85.5822 78.1839 85.5822 78.5471 85.5822L78.3655 85.7865ZM78.9103 93.1445V95.5971L77.639 96.619C77.639 96.619 76.3678 97.641 76.5494 97.8454C76.5494 97.8454 77.0942 97.641 77.639 97.2322C78.7287 96.2103 79.0919 96.2103 78.5471 97.2322C78.1839 98.0498 78.0023 98.0498 76.1861 98.0498C74.5516 98.0498 74.37 98.0498 74.5516 97.641C74.7332 97.4366 74.9149 97.2322 75.0965 97.641C75.0965 97.641 76.0045 97.0278 76.731 96.0059C77.639 94.984 78.1839 94.1664 78.0023 94.1664C77.8206 94.1664 77.0942 94.7796 76.1861 95.5971C73.2803 98.2542 73.462 98.2541 73.8252 97.4366C73.8252 97.0278 74.7333 95.8015 75.6413 94.7796C76.3678 93.7576 77.0942 92.7357 76.9126 92.7357C76.9126 92.7357 75.8229 93.5532 74.7332 94.5752C73.6436 95.5971 72.7355 96.4147 72.5539 96.4147C72.1907 96.4147 74.0068 93.7576 75.0965 92.5313C75.8229 91.7138 76.5494 91.305 77.0942 91.305C77.639 91.305 78.1839 91.305 78.3655 91.305C78.3655 91.305 78.5471 92.3269 78.5471 93.5532L78.9103 93.1445ZM72.1907 91.5094C72.1907 91.5094 72.1907 91.7138 72.3723 91.5094C72.5539 91.305 73.0987 91.1006 73.462 91.305C74.0068 91.305 74.0068 91.5094 73.6436 92.1225C73.462 92.5313 73.6436 92.3269 74.0068 92.1225C74.37 91.7138 74.9149 91.5094 75.2781 91.5094C75.6413 91.5094 75.4597 91.9181 74.37 93.1445C73.6436 93.962 73.0987 94.7796 73.0987 94.7796C73.0987 94.7796 73.0988 95.3927 72.5539 96.0059L71.8275 97.0278L71.4642 96.0059C71.4642 96.0059 71.101 94.3708 71.101 93.3489C71.101 91.305 71.101 91.5094 71.6458 91.5094C71.8275 91.5094 72.0091 91.5094 71.8275 91.9181L72.1907 91.5094ZM75.2781 94.7796C75.2781 94.7796 74.7333 95.8015 74.1884 96.4147C73.6436 97.0278 73.2803 97.8454 73.2803 97.8454C73.2803 97.8454 72.9171 97.8454 72.5539 97.4366C72.0091 97.0278 72.0091 96.8234 72.3723 96.8234C72.5539 96.8234 73.462 96.2103 74.0068 95.5971C75.4597 94.1664 75.4597 94.1664 75.2781 94.7796Z" fill="#777777"/>
<path id="Vector_2" d="M2.45176 6.89321C2.45176 6.89321 2.45176 7.0976 2.63337 6.89321C3.17821 6.68882 3.17821 6.48444 2.81499 6.48444C2.81499 6.48444 2.45175 6.48444 2.27014 6.89321H2.45176Z" fill="#777777"/>
<path id="Vector_3" d="M40.227 8.3239C40.227 8.3239 39.6822 8.93707 40.227 8.73268C40.5902 8.73268 40.9535 8.11952 40.9535 8.11952C41.1351 7.71074 40.9535 7.71074 40.227 8.52829V8.3239Z" fill="#777777"/>
<path id="Vector_4" d="M13.3485 9.14148C13.3485 9.14148 12.9853 9.55025 13.3485 9.55025C13.3485 9.55025 13.7117 9.55025 13.8933 9.14148C14.0749 8.73271 13.8933 8.73271 13.5301 9.14148H13.3485Z" fill="#777777"/>
<path id="Vector_5" d="M51.4869 16.0906C51.4869 16.0906 48.3995 18.3389 46.4018 19.7696C44.4041 21.2003 42.7695 22.4266 42.7695 22.2222C42.7695 22.2222 43.1328 21.4047 43.496 20.5871C44.4041 18.3389 44.4041 18.1345 42.9512 19.1564C42.2247 19.5652 40.227 20.7915 38.2293 21.8134C36.2315 22.8354 33.8706 24.4705 32.5993 25.4924C29.5119 28.1494 29.5119 28.1494 29.8751 27.1275C29.8751 26.7187 30.7832 25.4924 31.328 24.6749C32.4177 22.8354 33.689 19.974 33.3258 20.1783C30.2384 21.8134 25.6981 24.6749 22.2474 27.1275C19.8865 28.7626 17.3439 30.6021 16.4359 31.0109C15.5278 31.4196 14.983 32.0328 14.983 32.0328C15.1646 32.2372 18.0704 30.6021 22.429 27.3319C24.79 25.6968 28.059 23.4485 29.6935 22.631L32.5993 20.9959L31.8729 22.2222C31.8729 22.2222 30.7832 24.2661 30.0567 25.288C28.059 28.7626 28.6038 28.967 32.0545 26.1056C33.3257 25.0836 36.4131 23.0398 38.7741 21.6091L43.1328 19.1564L42.4063 20.5871C40.9535 23.2441 41.6799 23.2441 45.1305 20.5871C46.5834 19.5652 48.9443 17.9301 50.3972 16.9082C51.8501 15.8862 53.1214 15.0687 53.1214 14.8643C53.1214 14.4555 52.2134 14.8643 50.9421 15.6818L51.4869 16.0906Z" fill="#777777"/>
<path id="Vector_6" d="M59.2962 24.0618C59.2962 24.0618 58.7514 24.6749 59.2962 24.4705C59.6594 24.4705 60.0227 23.8574 60.0227 23.8574C60.2043 23.4486 60.0227 23.4486 59.2962 24.2661V24.0618Z" fill="#777777"/>
<path id="Vector_7" d="M60.5675 25.6968C60.9308 25.6968 61.1123 25.288 61.1123 25.288C61.1123 25.0836 61.1124 25.288 60.3859 25.6968H60.5675Z" fill="#777777"/>
<path id="Vector_8" d="M6.6288 30.3977L6.08398 31.2153L6.81041 30.6021C6.81041 30.6021 7.53687 29.7845 7.35526 29.7845C7.35526 29.7845 6.99202 30.1933 6.6288 30.3977Z" fill="#777777"/>
<path id="Vector_9" d="M5.90239 33.6679L5.35754 34.4854L6.08401 33.8723C6.08401 33.8723 6.81044 33.2591 6.99205 33.2591C6.99205 33.2591 6.44723 33.6679 6.08401 33.8723L5.90239 33.6679Z" fill="#777777"/>
<path id="Vector_10" d="M57.1169 39.3907C57.1169 39.3907 56.572 40.0038 57.1169 39.7995C57.4801 39.7995 57.6617 39.1863 57.6617 39.1863C57.6617 38.7775 57.6617 38.7775 56.9353 39.5951L57.1169 39.3907Z" fill="#777777"/>
<path id="Vector_11" d="M43.496 39.7995C43.6776 39.5952 44.0408 39.3908 44.0408 39.1864C44.0408 38.982 43.8593 39.1864 43.496 39.5952V39.7995Z" fill="#777777"/>
<path id="Vector_12" d="M53.8479 42.0478C52.395 43.2741 51.487 44.296 51.487 44.296C51.487 44.296 56.5721 40.2083 56.5721 40.0039C56.5721 40.0039 56.5721 40.0039 54.0295 42.0478H53.8479Z" fill="#777777"/>
<path id="Vector_13" d="M13.8933 41.8434C14.0749 41.639 14.4382 41.4346 14.4382 41.2302C14.4382 41.0258 14.2565 41.2302 13.8933 41.639V41.8434Z" fill="#777777"/>
<path id="Vector_14" d="M21.1578 42.4565C21.3394 42.2521 21.7026 42.0478 21.7026 41.8434C21.7026 41.639 21.5211 41.8434 21.1578 42.2521V42.4565Z" fill="#777777"/>
<path id="Vector_15" d="M49.3076 43.2741C48.3995 43.8872 47.4915 44.7048 47.6731 44.7048C47.6731 44.7048 51.3053 42.2521 51.3053 42.0477C51.3053 41.8433 51.3053 41.8433 49.3076 43.2741Z" fill="#777777"/>
<path id="Vector_16" d="M30.0568 44.0916C28.9671 45.1135 28.059 45.9311 28.059 45.9311C28.059 45.9311 32.2361 42.4565 32.2361 42.2521C32.2361 42.0477 32.2361 42.2521 30.0568 43.8872V44.0916Z" fill="#777777"/>
<path id="Vector_17" d="M24.2452 44.0916C24.4268 43.8872 24.79 43.6828 24.79 43.4784C24.79 43.274 24.6084 43.4784 24.2452 43.8872V44.0916Z" fill="#777777"/>
<path id="Vector_18" d="M36.7764 57.1724C35.8683 57.7856 35.5051 58.3987 36.4132 57.7856C36.958 57.3768 38.0477 56.5593 37.8661 56.5593C37.8661 56.5593 37.3212 56.968 36.7764 57.1724Z" fill="#777777"/>
<path id="Vector_19" d="M29.3303 54.7197C29.3303 54.7197 28.4223 55.5372 28.2407 55.7416C28.0591 55.7416 27.8774 56.1504 27.8774 56.1504C27.8774 56.1504 28.6039 55.7416 29.1487 55.1285C30.2384 53.9021 30.42 53.4934 29.1487 54.7197H29.3303Z" fill="#777777"/>
<path id="Vector_20" d="M37.3212 61.2601C37.8661 60.8514 37.8661 60.647 37.6845 60.647C37.6845 60.647 37.3212 60.8514 37.1396 61.2601H37.3212Z" fill="#777777"/>
<path id="Vector_21" d="M33.689 76.3848C33.689 76.3848 33.3258 76.9979 33.689 77.4067C34.0522 78.0199 34.2339 78.0199 35.8684 77.6111C37.1396 77.2023 37.5029 76.9979 37.5029 76.5892C37.5029 75.976 37.3212 75.976 35.6867 75.7716C34.4155 75.7716 33.8706 75.7716 33.5074 76.1804L33.689 76.3848Z" fill="#777777"/>
<path id="Vector_22" d="M25.1532 77.4067L24.6084 78.4287H26.6061C29.1487 78.2243 29.3303 78.0199 29.1487 77.2023C29.1487 76.5892 28.7855 76.5892 27.3326 76.5892C25.8797 76.5892 25.5165 76.5892 25.1532 77.4067Z" fill="#777777"/>
<path id="Vector_23" d="M31.6913 78.0199C32.0545 77.8155 32.2361 77.4067 32.4177 77.4067C32.4177 77.4067 31.8729 77.6111 31.6913 78.0199Z" fill="#777777"/>
<path id="Vector_24" d="M32.4177 79.2462C32.5993 79.0418 32.9626 78.8374 32.9626 78.633C32.9626 78.4286 32.7809 78.633 32.4177 79.0418V79.2462Z" fill="#777777"/>
<path id="Vector_25" d="M7.17364 80.4725C7.17364 80.4725 5.53914 82.1076 5.72075 82.1076C5.72075 82.1076 6.81041 81.4944 8.2633 80.0637C9.89781 78.4286 9.17137 78.633 7.17364 80.4725Z" fill="#777777"/>
<path id="Vector_26" d="M30.0567 81.0856C30.0567 81.0856 28.4222 82.5163 28.6038 82.5163C28.6038 82.5163 31.8728 80.0637 31.8728 79.8593C31.8728 79.6549 31.8728 79.6549 30.0567 81.0856Z" fill="#777777"/>
<path id="Vector_27" d="M40.0454 80.0637C40.4086 80.0637 40.5902 79.655 40.5902 79.655C40.5902 79.4506 40.5902 79.6549 39.8638 80.0637H40.0454Z" fill="#777777"/>
<path id="Vector_28" d="M72.0091 92.7357C72.0091 92.7357 71.2826 93.5533 71.6458 93.3489C72.1907 93.1445 73.4619 91.7138 73.0987 91.7138C73.0987 91.7138 72.5539 92.1226 72.0091 92.7357Z" fill="#777777"/>
<path id="Vector_29" d="M72.0091 95.3927C72.0091 95.3927 71.4642 96.0059 72.0091 95.8015C72.3723 95.8015 72.7355 95.1884 72.7355 95.1884C72.9171 94.7796 72.7355 94.7796 72.0091 95.5971V95.3927Z" fill="#777777"/>
</g>
</svg>
