<svg width="100" height="90" viewBox="0 0 100 90" fill="none" xmlns="http://www.w3.org/2000/svg">
<g id="Group">
<path id="Vector" d="M56.6486 2.83204C52.7444 4.9017 48.8402 9.96088 48.3809 14.3302C48.3809 15.25 47.9215 16.1699 47.9215 16.1699C47.9215 16.1699 47.2326 15.48 46.7732 14.5601C45.8546 12.9504 44.936 12.4905 44.4767 13.4103C44.4767 13.6403 45.1656 15.48 46.0843 17.5496C47.0029 19.3893 47.9215 21.2291 47.6919 21.2291C47.6919 21.2291 46.5436 20.9991 45.3953 20.3092C41.0318 18.2395 35.9793 19.1594 32.3047 22.8388C29.5488 25.5983 28.8598 27.2081 28.6302 32.2672C28.6302 37.5564 28.6302 38.9362 32.3047 43.9953C33.6827 46.065 35.2903 48.3646 35.7496 49.5144C36.2089 50.4343 37.8165 52.504 39.1945 53.8838C41.2614 56.1834 41.4911 56.4133 40.5724 56.4133C40.1131 56.4133 35.5199 56.4133 30.6971 56.8732C25.8743 57.3332 19.2141 57.3332 15.7692 57.5631C10.0278 57.7931 9.56845 57.7931 7.73118 58.9429C4.51595 61.0126 2.44901 64.0021 0.841399 69.5212C-0.995875 75.9601 0.15242 80.7894 4.51595 85.1587C6.35322 86.9984 7.0422 87.4583 9.79811 88.3781C13.0133 89.298 13.243 89.298 25.6446 89.298C32.5344 89.298 40.3428 89.068 42.6394 88.8381C45.1656 88.6081 50.9071 88.1482 55.73 87.6882C66.2943 86.9984 78.2366 85.8485 78.6959 85.6186C78.6959 85.6186 81.6814 85.1587 85.1263 84.9287C93.6237 84.2388 97.2983 83.7789 97.7576 82.859C98.6762 81.4792 97.7576 81.2493 94.3127 81.7092C90.8678 82.1691 78.6959 83.319 75.7103 83.5489C74.7917 83.5489 73.6434 83.5489 73.6434 83.7789C73.6434 83.7789 72.4951 84.0088 71.5764 84.0088C70.1985 84.0088 69.7392 84.0088 69.7392 83.089C69.7392 82.3991 69.9688 82.1691 71.3468 82.1691C73.1841 82.1691 74.7917 81.9392 76.3993 81.7092C76.8586 81.7092 78.0069 81.7092 78.4662 82.1691C79.3849 82.6291 79.8442 82.6291 80.9925 82.1691C81.9111 81.9392 82.3704 81.7092 82.3704 82.1691C82.3704 82.6291 86.2746 82.1691 91.3271 81.2493C93.3941 80.7894 96.3796 80.3294 97.9873 80.3294C99.8245 80.3294 100.514 80.3294 99.5949 80.0995C98.6762 80.0995 98.4466 79.6395 98.4466 78.9497C98.4466 78.2598 98.2169 78.0298 92.0161 78.2598C88.5712 78.2598 82.8298 78.7197 79.3849 79.1796C72.9544 80.0995 60.5528 81.2493 47.9215 82.1691C43.7877 82.3991 34.831 82.859 27.9412 82.859C21.0514 82.859 15.3099 83.089 15.3099 83.319C14.8506 83.7789 13.932 83.5489 12.0947 82.859C10.7167 82.1691 10.2574 81.7092 9.56845 80.0995C9.10913 78.9497 8.64981 77.7999 8.64981 77.3399C8.64981 76.4201 7.96084 76.1901 7.73118 77.11C7.73118 77.3399 7.27186 77.7999 7.0422 77.7999C6.58288 77.7999 6.58288 76.88 6.81254 73.8905C7.0422 69.9811 7.73118 67.9115 10.2574 62.8523L11.6354 60.0927L10.2574 61.4725C10.2574 61.4725 7.73117 64.2321 6.58288 65.6118C5.43458 67.2216 4.05663 68.8313 3.59731 69.2912L2.67867 69.9811L3.13799 68.3714C3.82697 66.3017 5.8939 62.3923 6.35322 62.6223C6.35322 62.6223 7.0422 62.1624 7.73118 61.4725C8.42016 60.7826 9.10913 60.3227 9.33879 60.3227C9.56845 60.3227 10.0278 60.3227 10.0278 60.0927C10.0278 59.6328 10.9464 59.6328 12.554 59.4028H14.8506L13.4727 60.7826C10.9464 63.5422 10.2574 64.462 10.2574 64.692C10.2574 64.692 11.4057 63.5422 12.7837 61.9324C15.0803 59.1729 15.3099 59.1729 16.6879 59.1729C17.6065 59.1729 19.2141 59.1729 20.1328 59.1729C23.5777 58.9429 37.5869 58.483 37.5869 58.7129C37.5869 58.7129 36.8979 59.4028 36.2089 59.8628C35.5199 60.3227 34.831 60.7826 35.0606 61.0126C35.0606 61.0126 35.9793 60.5527 36.8979 59.8628C38.2759 58.7129 38.9648 58.483 41.4911 58.253H44.247L42.4097 59.8628C40.5725 61.7025 40.5724 61.7025 37.3572 61.9324C35.5199 61.9324 32.0751 62.1624 29.5488 61.9324H24.9556L26.3336 60.3227C27.4819 59.1729 27.2522 59.1729 25.8743 60.5527C24.4963 61.9324 23.8073 62.3924 22.659 62.3924H21.2811L22.1997 61.4725C23.5777 60.3227 22.8887 60.5527 21.2811 61.4725C20.3624 61.9324 19.2141 62.3924 18.5252 62.3924H17.3769L18.2955 61.2425L19.2141 60.0927L18.0658 61.2425C18.0658 61.2425 16.4582 62.3924 15.7692 62.3924H14.621L15.7692 61.0126L16.9175 59.6328L15.3099 61.0126C15.3099 61.0126 13.4727 62.6223 13.243 62.8523C11.4057 64.2321 13.4727 64.692 20.5921 64.2321C23.8073 64.2321 29.5488 63.7721 33.6827 63.5422C37.8165 63.5422 45.1656 62.8523 50.2181 62.6223C55.2706 62.3923 64.457 61.7025 70.8875 61.4725C81.6815 61.0126 90.1788 60.5527 92.7051 59.8628C94.0831 59.6328 94.5424 58.7129 93.8534 58.0231C93.6237 57.7931 91.7865 57.7931 87.8822 58.253C84.8967 58.713 80.7628 58.9429 78.9255 58.9429H75.4807L76.8586 58.0231C78.6959 56.8732 78.4662 56.6433 76.1696 58.0231C75.0213 58.7129 73.4137 58.9429 71.5764 59.1729H69.0502L70.4282 58.0231C71.1171 57.3332 71.5764 56.6433 71.3468 56.6433C71.1171 56.6433 70.4282 57.1032 69.9688 57.7931C68.5909 59.4028 67.9019 59.4028 62.1604 59.8628H56.8783L57.7969 58.9429L58.7155 57.7931L57.3376 58.9429C57.3376 58.9429 55.73 60.0927 55.5003 60.0927C55.2706 60.0927 54.5817 60.0927 54.1223 60.3227C53.663 60.3227 53.663 60.3227 54.352 59.4028L55.2706 58.253L53.8927 59.1729C53.8927 59.1729 51.5961 60.0927 50.6775 60.3227H48.8402L50.9071 58.9429C52.7444 57.3332 52.9741 57.3332 56.1893 57.3332C58.0266 57.3332 61.9308 57.1032 65.146 56.8732C68.3612 56.6433 71.1171 56.4133 71.3468 56.4133C73.873 56.4133 80.3035 55.9534 82.1408 55.7234C83.2891 55.7234 85.1263 55.4935 86.2746 55.2635C87.4229 55.2635 89.9492 54.8036 91.5568 54.5736C94.3127 54.1137 94.5424 53.8837 94.772 53.1938C94.772 52.504 94.772 52.274 93.6237 52.274C92.9348 52.274 91.0975 52.274 89.4899 52.7339C87.8823 52.7339 82.6001 53.4238 77.7772 53.6538C72.9544 53.8837 66.9833 54.3437 64.9163 54.5736H61.0121L62.1604 53.4238C66.5239 47.6747 69.9688 30.1976 67.9019 25.1384C66.7536 22.8388 63.9977 19.6193 62.1604 18.6995C60.3231 17.7796 57.3376 17.3197 55.5003 17.5496C54.5817 17.5496 53.2037 18.4695 52.0554 19.1594L49.9885 20.5392L49.5292 19.3894C49.5292 19.3894 49.2995 18.0096 49.5292 17.7796C49.5292 17.5496 50.9071 16.8598 52.5147 16.3998C55.9596 15.25 59.1748 12.7204 61.0121 9.27099C62.1604 7.20132 62.3901 6.51143 62.3901 4.2118C62.3901 2.83203 62.3901 1.45226 61.9308 1.2223C61.2418 0.532411 58.7155 0.762373 56.8783 1.68222L56.6486 2.83204ZM59.8638 6.0515C59.8638 9.73091 55.9596 14.3302 51.5961 15.7099C50.6775 15.9399 50.4478 15.71 50.4478 15.48C50.4478 15.25 50.4478 15.0201 50.6775 15.0201C51.1368 15.0201 54.1223 12.4905 53.8927 12.2605C53.8927 12.2605 53.2037 12.7204 52.5147 13.4103C51.1368 14.7901 50.2181 15.0201 50.4478 13.6403C51.3664 10.4208 52.974 8.12118 55.9596 5.82156C58.4859 3.75189 59.4045 3.98184 59.4045 6.0515H59.8638ZM61.4714 21.9189C63.5384 23.0688 64.6867 26.0583 64.6867 30.6575V34.3369L65.146 31.1174C65.3756 29.0478 65.146 27.438 65.146 26.7482C64.8398 25.9816 64.9163 25.8283 65.3756 26.2882C65.3756 26.2882 66.0646 27.668 66.0646 31.3474C66.0646 33.877 66.0646 35.7167 65.835 35.7167C65.835 35.7167 65.6053 36.1766 65.835 36.6366C65.835 37.3264 65.835 37.5564 65.6053 37.5564C65.3756 37.5564 65.146 37.7864 65.3756 38.2463C65.3756 38.7062 65.3756 38.9362 65.3756 39.1661C65.146 39.1661 62.3901 45.3751 61.9308 47.2148C61.4714 48.5946 63.3087 45.1451 64.2273 42.6156C65.6053 39.1661 65.3756 41.2358 63.5384 46.5249C62.8494 48.8246 61.7011 51.3541 61.0121 52.044L59.8638 53.6538H55.5003C52.974 53.6538 51.1368 53.6538 51.1368 53.4238C51.1368 53.1939 51.5961 52.7339 52.2851 52.044C52.974 51.3541 54.1223 50.2043 54.8113 49.2845C55.5003 48.3646 54.8113 49.0545 53.2037 50.6643L50.2181 53.6538H46.7732C44.4767 54.1137 43.3284 53.8837 43.3284 53.6538C43.3284 53.4238 44.247 52.274 45.1656 51.1242C48.3809 47.4448 48.3809 46.9849 45.3953 50.2043L42.6394 53.1938L40.8021 51.3541C40.8021 51.3541 38.2759 48.1347 37.3572 46.5249C36.4386 44.9152 35.0606 43.0755 34.3716 41.9257L33.2234 40.3159L35.5199 38.0163L37.8165 35.7167L35.5199 37.7863C34.3717 38.9362 32.9937 39.856 32.9937 39.856C32.9937 39.856 32.3047 39.1661 32.0751 38.0163C31.6157 36.8665 31.1564 35.4867 31.1564 33.1871V30.1976L35.5199 26.0583C39.8835 21.9189 39.1945 22.1489 33.9123 26.9781C32.3047 28.3579 31.1564 29.5077 31.1564 29.2777C31.1564 27.668 35.0606 23.2987 37.5869 21.9189C39.4242 20.9991 40.5724 20.7691 40.3428 21.2291C40.3428 21.459 40.3428 21.459 40.8021 21.2291C41.7207 20.5392 45.3953 21.689 46.3139 22.8388C46.7732 23.2987 47.4622 23.7586 47.9215 23.7586C48.3809 23.7586 48.6105 23.9886 48.6105 24.2185C48.6105 24.4485 48.8402 25.1384 49.2995 25.5983C49.9885 26.5182 51.1368 26.5182 51.1368 25.3684C51.1368 24.4485 52.974 22.6088 54.8113 21.459C56.1893 20.5392 56.8783 20.5392 58.4859 20.5392C59.6342 20.5392 61.2418 20.9991 61.9308 21.459L61.4714 21.9189ZM52.2851 58.9429C50.4478 60.5527 48.6105 61.4725 47.0029 61.7025C45.3953 61.7025 45.3953 61.7025 45.8546 61.2425C46.3139 60.5527 46.3139 60.5527 45.1656 61.2425C44.4767 61.4725 43.558 61.9324 42.869 61.9324H41.7207L43.3284 60.3227L44.936 58.7129H48.8402C50.9071 58.7129 52.5147 58.7129 52.2851 58.9429ZM7.27186 67.2216C7.27186 67.2216 6.81254 68.3714 6.35322 68.8313C5.8939 69.5212 5.43458 70.901 5.43458 72.7407C5.43458 72.9706 4.74561 74.1204 3.82697 75.0403L2.21935 76.88V74.5804C2.21935 72.2807 2.21935 72.0508 4.7456 69.2912C6.12356 67.6815 7.27186 66.3017 7.27186 66.3017C7.27186 66.3017 7.27186 66.7617 7.27186 67.2216ZM5.43458 76.4201C5.43458 78.0298 4.05663 81.2493 3.82697 80.7894C3.13799 80.0995 3.36765 78.4897 4.28629 76.88C4.74561 75.7302 5.43458 74.8103 5.43458 74.8103C5.43458 74.8103 5.43458 75.5002 5.43458 76.1901V76.4201ZM3.59731 76.88C3.59731 76.88 2.67867 78.0298 2.44901 78.0298C2.21936 78.0298 2.44901 77.5699 2.90833 76.88C3.36765 76.1901 3.82697 75.7302 4.05663 75.7302C4.05663 75.7302 4.05663 76.1901 3.59731 76.88ZM6.35322 78.4897C6.35322 79.6396 4.97526 81.9392 4.51595 81.4793C4.28629 81.2493 5.20492 78.2598 5.66424 78.2598C5.66424 78.2598 5.8939 78.0298 5.8939 77.5699C5.8939 77.11 5.8939 76.88 5.8939 76.88C5.8939 76.88 5.8939 77.5699 5.8939 78.2598L6.35322 78.4897ZM9.10913 80.3294C9.10913 80.3294 9.79811 82.3991 9.79811 82.6291C9.33879 83.319 8.87947 82.6291 8.87947 81.4793C8.87947 81.0193 8.87947 80.5594 8.42015 80.5594C7.96084 80.5594 7.96084 80.0995 7.96084 78.9497C7.96084 78.2598 8.42015 78.4897 9.10913 80.3294ZM6.81254 83.089C6.81254 83.089 6.12356 83.319 5.43458 83.089C4.51594 82.6291 4.51594 82.6291 5.43458 81.9392C5.43458 81.9392 5.8939 81.9392 6.81254 81.9392C6.81254 81.9392 7.27186 82.859 6.81254 83.089ZM90.4085 81.7092C88.5712 82.1691 83.2891 82.6291 83.0594 82.1691C83.0594 82.1691 82.1408 82.1691 81.4518 82.3991C80.5332 82.859 80.0738 82.859 79.8442 82.3991C79.6145 81.9392 79.8442 81.7092 81.6814 81.4793C82.8297 81.4793 91.3271 81.2493 90.6382 81.4793L90.4085 81.7092ZM69.7392 84.0088C69.7392 84.0088 69.2798 84.6987 66.2943 85.1587C59.6342 86.0785 55.5003 86.0785 55.9596 85.6186C56.1893 85.3886 55.9596 85.1586 55.73 85.6186C55.5003 85.6186 54.5817 86.0785 53.8927 86.0785C53.2037 86.0785 52.2851 86.0785 51.5961 86.3085C51.5961 86.3085 51.5195 86.1552 51.3664 85.8485C51.3664 85.8485 51.8257 85.1587 50.2181 85.8485C49.5292 86.3085 49.0698 86.3085 49.2995 85.8485C49.2995 85.6186 49.2995 85.3886 49.2995 85.3886C49.2995 85.3886 48.8402 85.3886 48.6105 85.8485C48.6105 85.8485 47.4622 86.0785 46.5436 86.0785C45.6249 86.0785 44.7063 86.0785 44.7063 86.0785C44.7063 86.0785 44.0173 86.5384 43.0987 86.5384C41.9504 86.7684 41.7207 86.5384 42.1801 86.3085C42.6394 85.8485 42.4097 85.8485 41.2614 86.3085C40.3428 86.7684 37.8165 86.9984 34.3716 87.2283H29.0895L30.6971 86.3085C32.3047 85.3886 32.5344 85.1587 38.2759 85.3886C41.4911 85.3886 44.247 85.3886 44.4767 85.3886C44.7063 85.3886 44.936 85.3886 44.936 85.3886C44.936 85.6186 44.936 85.6186 45.3953 85.3886C45.625 85.3886 47.6919 84.9287 49.9885 84.6987C52.2851 84.6987 54.5817 84.4688 55.2706 84.2388C56.1893 84.2388 56.4189 84.2388 56.4189 84.4688C56.4189 84.9287 56.4189 84.9287 56.6486 84.4688C57.3376 84.0089 58.7155 83.7789 58.7155 84.4688C58.7155 84.4688 59.1748 84.9287 59.6342 84.9287C60.0935 84.9287 60.3231 84.9287 60.0935 84.6987C59.4045 84.4688 59.8638 83.7789 60.5528 83.7789C60.7825 83.7789 61.0121 83.7789 61.0121 84.2388C61.0121 84.2388 61.4714 84.2388 62.1604 84.2388C63.3087 83.7789 63.768 83.7789 63.768 84.2388C63.768 84.4688 64.2273 84.6987 64.6867 84.6987C65.146 84.6987 65.146 84.6987 64.6867 84.4688C64.457 84.4688 64.2273 84.0088 64.2273 83.7789C64.2273 83.5489 64.9163 83.5489 66.0646 83.7789C67.2129 83.7789 67.9019 83.7789 67.9019 83.7789C67.9019 83.089 69.2799 83.5489 69.5095 84.2388L69.7392 84.0088ZM7.73118 84.4688C7.73118 84.4688 8.42015 85.3886 8.64981 85.3886C9.10913 85.3886 9.10913 85.3886 8.64981 85.8485C8.1905 86.3085 7.96084 86.0785 7.0422 85.8485C5.8939 85.1587 5.8939 84.6987 6.35322 84.2388C6.81254 83.7789 7.0422 84.0088 7.50152 84.9287L7.73118 84.4688ZM13.7023 84.6987L14.621 85.1587H13.7023C13.7023 85.1587 12.554 85.1586 12.3244 84.6987C11.865 84.2388 11.865 84.2388 12.3244 84.2388C12.554 84.2388 13.243 84.2388 13.7023 84.6987ZM11.6354 85.6186V86.0785C11.1761 86.3085 10.0278 85.6186 10.0278 85.1587C10.0278 84.6987 11.6354 85.1586 11.865 85.6186H11.6354ZM18.7548 86.3085C18.7548 86.3085 19.6735 86.7684 15.9989 86.9984C13.243 86.9984 13.0133 86.9983 13.932 86.5384C15.0803 85.8485 17.8362 85.6186 18.7548 86.3085ZM23.5777 86.5384C23.5777 86.5384 23.348 86.9984 23.5777 86.9984C23.5777 86.9984 24.2666 86.7684 24.4963 86.3085C24.726 86.0785 25.1853 85.6186 25.6446 85.6186C26.1039 85.6186 26.1039 85.6186 25.6446 86.3085C25.1853 86.9984 24.4963 86.9984 22.1997 86.9984C20.3624 86.9984 19.75 86.7684 20.3624 86.3085C21.7404 85.3886 24.2666 85.3886 23.5777 86.3085V86.5384ZM27.4819 86.5384C27.4819 86.5384 26.3336 87.4583 25.8743 87.4583C25.1853 87.4583 24.9556 87.4583 25.8743 86.5384C26.3336 86.0785 27.0226 85.6186 27.4819 85.6186C28.1708 85.6186 28.4005 85.6186 27.4819 86.5384ZM30.2378 86.0785C30.2378 86.0785 29.7785 86.5384 29.5488 86.5384C29.3191 86.5384 29.3191 86.5384 29.5488 86.0785C29.5488 85.8485 30.0081 85.6186 30.2378 85.6186C30.4674 85.6186 30.4674 85.6186 30.2378 86.0785ZM28.6302 86.7684C28.6302 86.7684 28.1708 87.4583 27.7115 87.4583C27.7115 87.4583 27.7115 87.2283 27.7115 86.7684C27.7115 86.7684 28.6302 86.0785 28.6302 86.7684Z" fill="#777777"/>
<path id="Vector_2" d="M36.2089 30.1976C34.3716 32.0373 32.9937 33.417 33.2233 33.417C33.6827 33.417 40.3428 26.9781 39.8835 26.9781C39.8835 26.9781 38.0462 28.5878 36.2089 30.1976Z" fill="#777777"/>
<path id="Vector_3" d="M32.764 30.8875L31.8454 32.0373L32.9937 31.1174L34.3716 29.9676C34.3716 29.9676 34.3716 29.9676 34.142 29.9676C34.142 29.9676 33.2234 30.4275 32.764 31.1174V30.8875Z" fill="#777777"/>
<path id="Vector_4" d="M38.7352 30.4275C38.7352 30.4275 33.453 36.1766 33.2234 36.8664C32.5344 38.0163 33.453 37.0964 36.4386 33.647C39.4242 30.1975 39.8835 29.7376 38.9648 30.4275H38.7352Z" fill="#777777"/>
<path id="Vector_5" d="M37.1275 39.396C35.5199 41.0058 34.6013 42.1556 35.0606 41.9256C35.7496 41.4657 37.5868 39.626 39.4241 37.5563C41.0317 35.7166 39.8834 36.6365 37.1275 39.626V39.396Z" fill="#777777"/>
<path id="Vector_6" d="M37.5869 42.6155C37.5869 42.6155 36.6683 43.7653 37.1276 43.5354C38.0462 42.8455 39.4242 41.4657 39.4242 41.2358C39.4242 41.0058 39.1945 41.2358 37.8165 42.6155H37.5869Z" fill="#777777"/>
<path id="Vector_7" d="M39.6538 43.5354C37.1276 46.2949 36.6682 47.2148 38.5055 45.1451C39.8835 43.9953 42.1801 41.0058 41.9504 41.0058C41.9504 41.0058 40.8021 42.1556 39.4242 43.5354H39.6538Z" fill="#777777"/>
<path id="Vector_8" d="M44.4767 44.4553C41.4911 48.1347 39.8835 49.9744 40.3428 50.2043C40.3428 50.2043 41.9504 48.5946 43.558 46.295C45.1656 43.9953 46.5436 42.1556 46.5436 42.1556C46.5436 42.1556 45.6249 43.0755 44.7063 44.2253L44.4767 44.4553Z" fill="#777777"/>
<path id="Vector_9" d="M40.8021 46.065C39.1945 47.9047 38.9648 48.8245 40.3428 47.2148C41.4911 46.0649 42.4097 44.6852 42.1801 44.6852C42.1801 44.6852 41.4911 45.3751 40.8021 46.065Z" fill="#777777"/>
<path id="Vector_10" d="M44.4767 48.1346C42.1801 50.8941 41.0318 52.5039 41.4911 52.5039C41.4911 52.5039 42.8691 50.8941 44.4767 48.8245C46.0843 46.7548 47.2326 45.1451 47.2326 45.1451C47.2326 45.1451 45.8546 46.5249 44.4767 48.1346Z" fill="#777777"/>
<path id="Vector_11" d="M46.3139 51.5841L44.7063 53.4238L46.5436 51.8141L48.1512 50.2043C48.1512 49.9743 47.6919 50.2043 46.3139 51.8141V51.5841Z" fill="#777777"/>
<path id="Vector_12" d="M56.8783 51.8141C56.8783 51.8141 55.9596 52.7339 56.6486 52.7339C56.6486 52.7339 57.1079 52.274 57.5672 51.8141C58.0266 50.8942 57.7969 50.6643 57.1079 51.8141H56.8783Z" fill="#777777"/>
<path id="Vector_13" d="M59.8638 52.0441L59.6342 52.9639C59.6342 52.9639 60.0935 52.504 60.3231 52.0441C60.5528 51.5841 60.5528 51.1242 60.5528 51.1242C60.5528 51.1242 60.0935 51.5841 59.8638 52.0441Z" fill="#777777"/>
<path id="Vector_14" d="M4.51594 71.8208C4.51594 71.8208 3.82696 72.9706 4.28628 72.5107C4.97526 72.0508 5.89389 70.441 5.66423 70.441C5.66423 70.441 5.20491 71.1309 4.51594 71.8208Z" fill="#777777"/>
<path id="Vector_15" d="M4.51592 77.7999C4.51592 77.7999 3.82695 78.9496 4.0566 78.9496C4.0566 78.9496 4.51592 78.7197 4.97524 78.0298C5.43456 77.5699 5.66422 76.88 5.43456 76.88C5.43456 76.88 4.97524 77.11 4.51592 77.7999Z" fill="#777777"/>
<path id="Vector_16" d="M6.35321 82.1692C6.35321 82.1692 6.35321 82.6291 6.58167 82.3991C6.58167 82.1692 6.58167 81.7092 6.58167 81.7092C6.58167 81.7092 6.35321 81.7092 6.58167 82.1692H6.35321Z" fill="#777777"/>
<path id="Vector_17" d="M17.8362 86.3084H18.5252C18.5252 86.3084 18.5252 86.0785 18.0659 86.3084C17.6066 86.3084 17.6066 86.3084 17.8362 86.5384V86.3084Z" fill="#777777"/>
<path id="Vector_18" d="M86.045 57.5632C86.045 57.5632 85.1264 58.483 85.356 58.483C85.5857 58.483 86.2746 58.0231 86.734 57.5632C87.8823 56.1834 87.6526 56.1834 86.045 57.5632Z" fill="#777777"/>
<path id="Vector_19" d="M81.6814 58.253C81.6814 58.253 80.0738 59.1728 80.5331 59.1728C80.9924 59.1728 83.7483 57.5631 83.7483 57.3331C83.7483 57.3331 83.0593 57.6397 81.6814 58.253Z" fill="#777777"/>
<path id="Vector_20" d="M73.6434 58.9428C73.6434 58.9428 73.1841 59.4028 73.6434 59.4028C73.8731 59.4028 74.3324 59.4028 74.3324 58.9428C74.5621 58.4829 74.3324 58.4829 73.6434 58.9428Z" fill="#777777"/>
<path id="Vector_21" d="M65.6054 59.6328C65.6054 59.6328 64.6867 59.8628 65.6054 60.0928C66.0647 60.0928 66.7537 60.0928 66.9833 59.6328C67.6723 59.1729 66.9833 59.1729 65.835 59.6328H65.6054Z" fill="#777777"/>
<path id="Vector_22" d="M29.3192 61.0126C29.3192 61.0126 28.4005 61.9324 28.6302 61.9324C28.6302 61.9324 29.3192 61.7024 29.7785 61.0126C30.9268 59.8627 30.6971 59.6328 29.3192 61.0126Z" fill="#777777"/>
<path id="Vector_23" d="M33.453 60.5527C33.453 60.5527 32.5344 61.2426 31.8454 61.4726C31.1564 61.9325 30.9267 62.1624 31.1564 62.1624C31.6157 62.1624 34.3716 60.0928 33.9123 60.0928C33.9123 60.0928 33.453 60.0928 33.2233 60.5527H33.453Z" fill="#777777"/>
<path id="Vector_24" d="M38.5055 61.2425C38.5055 61.2425 38.0462 61.7024 38.5055 61.7024C38.7352 61.7024 39.1945 61.7025 39.1945 61.2425C39.4242 60.7826 39.1945 60.7826 38.5055 61.2425Z" fill="#777777"/>
<path id="Vector_25" d="M88.1119 65.8417C84.8967 65.8417 79.3848 66.3017 75.4806 66.5316C71.8061 66.7616 64.6867 67.2215 59.8638 67.4515C55.041 67.6814 49.5292 68.1414 47.4622 68.3713C43.558 68.8313 31.3861 69.5212 21.0514 69.7511C17.6065 69.7511 14.621 70.211 14.3913 70.211C14.1616 70.211 14.1616 70.9009 14.3913 71.3608C14.621 72.0507 15.3099 72.0507 24.726 71.8208C30.2378 71.8208 36.8979 71.3609 39.6538 71.1309C57.1079 69.9811 62.6197 69.5212 71.1171 69.0612C76.3993 68.8313 82.6001 68.3713 84.667 68.1414C86.7339 68.1414 89.9492 67.6814 91.5568 67.6814C93.3941 67.6814 94.772 67.6815 95.461 67.2215C96.3796 66.5316 95.9203 65.3818 94.772 65.3818C94.3127 65.3818 91.3271 65.3818 88.1119 65.6118V65.8417Z" fill="#777777"/>
<path id="Vector_26" d="M95.6907 72.5107C95.6907 72.5107 92.4754 72.9706 88.8009 73.2005C68.5909 74.5803 65.146 74.8103 61.7011 75.2702C59.6341 75.2702 52.974 75.7301 47.0029 75.9601C40.8021 75.9601 34.142 76.42 32.075 76.65C30.0081 76.88 24.9556 77.1099 21.2811 77.3399C14.3913 77.5698 14.1616 77.5698 14.1616 78.4897C14.1616 79.1796 14.1616 79.4095 15.0803 79.6395C16.4582 79.8695 25.6446 79.6395 30.9267 78.9496C32.9937 78.7196 40.5724 78.4897 47.9215 78.0298C55.2706 78.0298 62.6197 77.5698 63.9977 77.3399C65.6053 77.1099 69.9688 76.65 73.6434 76.42C87.8822 75.5002 97.0686 74.8103 97.5279 74.1204C98.4466 73.2005 97.0686 72.0507 95.6907 72.5107Z" fill="#777777"/>
<path id="Vector_27" d="M7.96085 75.7302C7.96085 75.7302 7.96085 76.1901 8.18931 75.9601C8.18931 75.7302 8.18931 75.2703 8.18931 75.2703C8.18931 75.2703 7.96085 75.2703 8.18931 75.7302H7.96085Z" fill="#777777"/>
<path id="Vector_28" d="M76.629 82.859C76.629 82.859 75.94 83.3189 76.8586 82.859C78.0069 82.3991 78.2366 82.1691 77.7772 82.1691C77.5476 82.1691 77.0883 82.3991 76.629 82.859Z" fill="#777777"/>
</g>
</svg>
