<svg width="80" height="90" viewBox="0 0 80 90" fill="none" xmlns="http://www.w3.org/2000/svg">
<g id="Group">
<path id="Vector" d="M35.6183 1.85932C32.1009 1.85932 29.1697 2.07887 29.1697 2.29841C29.1697 2.29841 28.5834 3.39614 28.1926 4.71341C27.2155 6.90887 27.2155 6.90887 26.043 6.90887C25.4568 6.90887 21.9393 6.90887 18.2265 7.12841C11.7778 7.34796 11.5824 7.34796 10.4099 8.22614C8.26038 9.76296 8.26038 9.76296 8.4558 18.5448C8.4558 22.9357 8.4558 28.8634 8.4558 31.9371C8.4558 35.6693 8.4558 42.0361 8.4558 50.3789C8.84663 65.308 9.43286 73.2116 10.4099 75.8461L10.9962 77.8221L10.2145 78.4807C10.2145 78.4807 7.86955 80.0175 5.72 81.1152C1.4209 83.5302 -0.337823 85.0671 0.0530046 86.1648C0.443832 87.043 1.61632 87.4821 7.86956 88.3602C12.3641 89.0189 13.9274 89.2384 21.5485 89.2384C26.2385 89.2384 32.6871 89.2384 35.6183 88.7993C38.5495 88.7993 43.8257 88.3602 46.9523 88.1407C59.2634 87.4821 63.9533 87.043 64.5396 87.043C65.712 86.8234 66.2983 84.8475 66.1029 81.7739V78.9198H66.8845C69.0341 78.4807 69.8157 76.5048 69.8157 71.8943C69.8157 68.3816 69.0341 58.7216 68.6432 56.7457C67.6662 52.1352 67.6662 51.6961 68.2524 50.818C68.6432 50.3789 69.0341 49.5007 69.2295 48.8421C69.4249 47.9639 69.8157 47.5248 70.9882 47.0857C72.5515 46.4271 75.4827 44.0121 77.046 42.2557C77.6323 41.5971 78.6093 39.8407 79.0002 38.5234C80.7589 33.4739 80.1726 27.3266 77.4369 23.3748C76.069 21.1793 71.9653 17.8861 69.8157 17.008C68.2524 16.3493 64.1487 16.1298 62.1946 16.7884C60.4359 17.2275 56.1368 20.5207 54.378 22.9357C52.4239 25.5702 51.8377 27.5461 51.8377 32.3761C51.8377 35.6693 51.8377 36.328 52.8147 38.3039C54.1826 41.8166 56.3322 44.2316 59.8496 45.988L62.5854 47.5248V49.0616C63.1717 51.0375 62.9762 54.5502 62.5854 57.1848C62.5854 58.2825 62.1946 62.893 62.1946 67.5034V75.8461H61.6083C61.6083 75.8461 60.4359 76.2852 59.6542 76.2852H58.4817L59.4588 75.1875L60.4359 74.0898L59.4588 74.968C58.2863 76.0657 57.7001 76.0657 54.1826 76.2852H51.6422L53.0101 75.1875C53.7918 74.5289 54.1826 73.8702 53.9872 73.8702C53.7918 73.8702 53.2056 74.5289 52.6193 75.1875C51.8377 76.2852 51.2514 76.5048 50.2743 76.5048H49.1019L50.0789 75.4071C51.056 74.3093 51.056 74.3093 49.4927 75.4071C48.3202 76.5048 47.9294 76.7243 46.5615 76.7243H44.9982L45.9752 75.6266C47.1477 74.5289 46.7569 74.5289 45.1936 75.8461C44.6073 76.2852 43.6303 76.7243 42.6532 76.7243H41.0899L43.2394 74.7484L45.389 72.553L43.4349 74.3093C42.2624 75.1875 41.2853 76.2852 41.0899 76.5048C40.8945 76.7243 40.1128 76.9439 39.5266 76.9439H38.3541L41.0899 73.8702C42.6532 72.1139 43.2395 71.2357 42.6532 71.8943C42.067 72.553 40.6991 73.8702 39.722 74.968C38.1587 76.7243 37.7679 76.9439 36.5954 76.9439C35.4229 76.9439 35.2275 76.9439 35.8137 76.2852C36.2046 75.8462 36.2046 75.6266 36.0091 75.6266C36.0091 75.6266 35.4229 75.8462 35.2275 76.2852C34.8367 76.7243 34.2504 76.9439 33.0779 76.9439H31.5146L33.2733 74.968L35.0321 72.9921L32.6871 74.968C30.9284 76.5048 30.1467 76.9439 29.3651 76.9439C28.7788 76.9439 28.388 76.9439 28.5834 76.5048C28.5834 76.5048 29.9513 74.968 31.5146 73.4312C33.0779 71.8943 34.2504 70.5771 34.055 70.5771C34.055 70.5771 32.4917 71.8943 30.733 73.6507C28.7788 75.6266 27.4109 76.7243 27.0201 76.7243C26.4339 76.7243 26.4339 76.7243 27.4109 75.4071C27.9972 74.7484 28.9742 73.4312 29.7559 72.553C30.5376 71.6748 31.1238 70.7966 31.1238 70.5771C31.1238 70.5771 29.9513 71.6748 28.388 73.4312C26.043 76.2852 25.6522 76.7243 24.6751 76.7243H23.6981L25.4568 74.968C25.4568 74.968 27.8018 72.3334 28.5834 71.2357C29.7559 69.6989 29.1697 70.138 26.6293 72.9921C23.3072 76.5048 23.1118 76.7243 21.9394 76.7243H20.5715L21.9394 75.4071C23.5027 74.0898 26.043 71.2357 25.066 71.8943C24.6751 72.1139 23.5027 73.4311 22.1348 74.5289C20.376 76.0657 19.5944 76.7243 19.0081 76.7243C18.0311 76.7243 18.2265 76.7243 21.9394 72.553C25.066 69.2598 25.2614 68.8207 23.1118 70.7966C21.7439 72.1139 19.7898 74.0898 19.0081 74.968C18.0311 76.0657 17.2494 76.7243 16.8586 76.5048C16.4678 76.5048 17.054 75.4071 20.1806 71.8943C22.3302 69.4793 23.3072 68.1621 22.721 68.8207C21.9393 69.4793 20.1806 71.6748 18.6173 73.4312C16.6632 75.6266 15.6861 76.7243 15.0999 76.5048C14.5136 76.5048 15.0999 75.6266 18.2265 71.6748L21.9394 67.0643L17.8357 71.6748C15.6861 74.3093 13.5366 76.5048 13.3411 76.5048C12.5595 76.5048 12.7549 76.0657 14.1228 74.5289C14.709 73.8702 15.8815 72.3334 16.6632 71.4552C17.2494 70.5771 16.6632 71.2357 15.0999 72.9921C12.3641 76.0657 12.1687 76.2852 11.7778 75.6266C11.1916 74.7484 11.1916 74.5289 12.1687 73.8702C12.5595 73.6507 13.9274 72.1139 15.0999 70.5771L17.2494 67.723L14.3182 71.0161C11.7778 73.8702 11.387 74.0898 11.1916 73.6507C10.9962 72.9921 10.8008 72.9921 13.732 69.2598C14.9045 67.723 16.4678 65.5275 17.2494 64.2102C18.8127 61.5757 18.2265 62.4539 15.4907 66.1861C13.5366 68.8207 11.387 71.4552 10.9962 71.4552C10.9962 71.4552 10.9962 70.7966 10.8008 70.138C10.8008 69.4793 10.8008 68.8207 10.8008 68.8207C10.8008 68.8207 11.9732 67.5034 13.3411 65.7471C16.6632 61.3561 17.2494 60.478 17.2494 60.478C17.2494 60.478 15.6861 62.2343 13.9274 64.4298L10.8008 68.3816V66.8448C10.0191 62.2343 9.82369 62.6734 13.3411 58.7216C15.0999 56.7457 16.8586 54.5502 17.2494 54.1111C17.6402 53.4525 16.2723 54.9893 13.9274 57.4043L10.0191 61.7952V60.2584C10.0191 58.9412 10.0191 58.5021 10.8008 57.6239C11.387 56.9652 12.3641 55.8675 13.1457 54.7698C14.1228 53.4525 13.732 53.6721 12.1687 55.648L9.82369 58.063V48.6225L11.1916 47.0857C11.9732 46.2075 12.7549 45.1098 13.1457 44.8902C13.3411 44.4511 12.7549 44.8902 11.7778 46.2075C10.8008 47.3052 9.82369 48.1834 9.82369 48.1834C9.82369 48.1834 9.62828 47.7443 9.62828 47.0857C9.62828 46.2075 10.0191 45.5489 11.1916 44.2316C11.9732 43.3534 12.7549 42.4752 12.7549 42.2557C12.7549 42.2557 12.3641 42.2557 11.7778 43.1339C11.1916 43.7925 10.6053 44.4511 10.2145 44.8902C9.62828 45.3293 9.62828 45.3293 9.62828 44.0121C9.62828 42.9143 9.8237 42.2557 10.9962 40.7189L12.3641 38.9625L10.9962 40.4993L9.62828 42.0361V40.2798C9.62828 39.1089 10.6053 37.4989 12.5595 35.4498C14.5136 33.4007 14.709 33.108 13.1457 34.5716C9.23745 38.3039 9.62828 38.3039 9.62828 34.5716V31.498L11.7778 28.8634L13.9274 26.2289L11.7778 28.6439L9.62828 31.0589V29.5221C9.62828 28.4243 9.82369 27.7657 10.6053 26.668C11.9732 25.1311 11.9732 24.4725 10.6053 25.7898L9.62828 26.8875V26.0093C9.62828 26.0093 10.0191 24.6921 11.387 23.3748C13.5366 21.1793 13.5366 20.7402 11.387 22.7161L9.62828 24.253V22.9357C9.62828 21.6184 9.62828 21.3989 11.5824 19.6425C12.7549 18.5448 13.5366 17.4471 13.5366 17.4471C13.5366 17.4471 12.7549 17.8861 11.9732 18.7643C10.0191 20.9598 9.62828 21.1793 9.62828 20.0816C9.62828 19.6425 10.4099 18.3252 11.7778 16.7884C13.9274 14.3734 13.5366 14.593 10.8008 17.2275L9.43287 18.5448V17.008C9.43287 15.4711 9.43287 15.2516 10.9962 13.7148L12.5595 11.9584L10.8008 13.4952C9.43287 14.8125 9.04204 15.0321 9.04204 14.593C9.04204 14.1539 9.43287 13.4952 9.82369 13.0561L10.4099 12.178L9.82369 12.8366C9.82369 12.8366 8.84662 13.2757 9.82369 12.178C9.82369 12.178 9.23745 12.6171 9.43287 11.5193C9.69342 10.0557 12.4943 9.10432 17.8357 8.66523C21.9393 8.44569 25.2614 8.22614 25.2614 8.0066C25.6522 7.78705 25.4568 8.44569 25.066 9.54342C24.6751 10.4216 24.6751 10.8607 25.066 11.2998C25.4568 12.178 27.0201 12.178 34.4458 11.5193C37.1816 11.5193 41.2853 11.0802 43.8257 10.8607C47.5386 10.8607 48.3202 10.6411 48.5156 9.98251C48.711 9.54342 48.5156 9.32387 48.3202 8.66523C48.1248 8.22614 47.734 8.0066 47.734 7.78705C47.734 7.5675 53.401 7.12842 57.3092 6.90887H60.8267V11.0802C60.8267 15.0321 60.8267 15.2516 61.4129 15.2516C61.9992 15.2516 61.9992 15.2516 62.1946 13.0561C62.5854 9.32387 62.1946 6.03069 61.6083 5.37205C61.0221 4.71341 54.9643 4.71341 51.6422 5.37205C50.4698 5.37205 48.9065 5.81114 47.9294 5.81114C46.3661 5.81114 46.3661 5.81114 45.7798 4.93296C45.5844 4.27432 44.8028 3.1766 44.0211 2.29841C43.044 0.981141 42.6532 0.761597 42.067 0.761597C41.6761 0.761597 38.3541 0.761596 34.8367 0.981142L35.6183 1.85932ZM44.0211 5.1525C44.0211 5.1525 45.389 7.5675 45.7798 8.0066C46.1707 8.66523 46.3661 9.10432 46.3661 9.32387C46.3661 9.54342 45.1936 9.76296 43.2394 9.76296C41.4807 9.76296 40.1128 9.76296 40.1128 9.76296C40.1128 9.76296 40.5037 9.10432 41.0899 8.66523C41.6761 8.0066 41.8716 7.78705 41.6761 7.56751C41.4807 7.56751 40.8945 8.0066 40.3082 8.66523C39.5266 9.76296 39.3312 9.76296 37.7679 9.76296H36.2046L37.377 8.66523C38.9403 7.12841 38.7449 7.12841 36.7908 8.66523C35.8137 9.32387 35.0321 9.76296 34.6412 9.76296C34.055 9.76296 34.2504 9.32387 35.6183 8.22614C38.3541 6.03069 37.9633 6.03069 35.0321 8.22614C32.4917 9.9825 31.9055 10.4216 31.9055 9.98251C31.9055 9.98251 32.8825 9.10432 34.055 8.0066C35.2275 6.90887 36.2046 6.25023 36.2046 6.03069C36.2046 6.03069 35.8137 6.03069 35.2275 6.68932C34.2504 7.56751 33.6642 7.56751 34.2504 6.68932C34.6412 6.25023 34.6412 6.25023 34.2504 6.68932C33.8596 6.68932 33.2733 7.34796 32.8825 7.78705C32.2963 8.44569 32.2963 8.44569 32.8825 8.22614C33.4688 8.22614 33.4688 8.22614 32.8825 8.66523C31.9055 9.76296 30.9284 10.2021 31.1238 9.76296V9.32387C30.9284 9.32387 30.9284 9.32387 31.1238 8.88478C31.3192 8.66523 31.71 8.44569 31.71 8.44569C31.71 8.44569 31.71 8.66523 31.71 8.88478C31.5146 9.10433 31.5146 9.32387 31.71 9.32387C31.71 9.32387 32.1009 9.10433 32.2963 8.88478C32.4917 8.44569 32.4917 8.44569 32.2963 8.44569C32.1009 8.44569 32.1009 8.44569 32.2963 8.0066C32.2963 7.78705 32.2963 7.78705 31.9055 8.0066C31.3192 8.44569 30.733 9.10432 30.733 9.54342C30.733 9.54342 30.5376 9.76296 30.3421 9.76296C30.1467 9.76296 29.7559 9.76296 29.3651 10.2021C29.1697 10.2021 29.3651 9.98251 30.1467 9.10432C30.9284 8.22614 31.1238 7.78705 30.733 8.0066C30.3421 8.0066 29.7559 8.66523 29.5605 9.10432C29.1697 9.54342 28.5834 9.98251 28.388 10.2021C27.9972 10.2021 28.388 9.98251 28.9742 9.10432C29.5605 8.22614 29.9513 7.56751 29.9513 7.34796C29.9513 7.34796 29.9513 6.68932 30.5376 6.46978C29.5605 7.78705 30.1467 7.34796 31.3192 6.03069C31.9055 5.37205 32.1009 4.93296 31.71 5.37205C30.733 6.25023 30.733 5.81114 31.71 4.71341C32.1009 4.27432 32.2963 3.83523 32.1009 3.83523C31.9055 3.83523 31.71 3.83523 31.71 4.05478C31.71 4.05478 31.1238 4.71341 30.733 5.1525L29.7559 6.03069L30.1467 4.93296L30.5376 3.83523H34.2504C36.4 3.83523 38.9403 3.39614 40.1128 3.39614C41.2853 3.39614 42.4578 3.17659 42.6532 2.95705C42.8486 2.95705 43.6303 3.83523 44.2165 4.71341L44.0211 5.1525ZM34.055 8.0066C34.055 8.0066 33.6642 8.44569 33.4688 8.44569C33.4688 8.44569 33.2733 8.44569 33.4688 8.0066C33.4688 8.0066 33.8596 7.56751 34.055 7.56751C34.055 7.56751 34.2504 7.5675 34.055 8.0066ZM72.3561 20.5207C73.724 21.6184 75.4827 23.1552 76.069 24.0334C78.6093 27.3266 79.391 32.8152 77.8277 37.6452C77.046 39.8407 76.6552 40.4993 75.2873 42.0361C74.3102 43.1339 72.7469 44.2316 71.9653 44.8902C70.402 45.7684 70.2066 45.7684 66.8845 45.7684C63.3671 45.7684 63.1716 45.7684 61.0221 44.4511C57.7001 42.6948 56.1368 40.9384 54.9643 37.4257C53.9872 34.7911 53.9872 34.5716 54.1826 31.2784C54.378 26.668 55.3551 24.6921 59.068 21.6184C62.7808 18.5448 63.3671 18.3252 67.4708 18.5448C70.0111 18.5448 70.0111 18.5448 72.5515 20.7402L72.3561 20.5207ZM68.2524 48.1834C68.2524 48.1834 67.4708 49.7202 66.1029 49.7202C65.1258 49.7202 64.9304 49.7202 64.9304 48.6225V47.5248H66.4937C68.057 47.5248 68.2524 47.5248 68.2524 48.1834ZM66.4937 53.0134C66.4937 53.0134 66.8845 54.7698 66.8845 55.4284C66.8845 56.0871 67.2753 57.1848 67.2753 57.8434C67.2753 59.1607 67.2753 59.3802 65.9074 60.9171C64.5395 62.2343 64.3441 62.4539 64.1487 61.7952C64.1487 61.3561 64.5395 60.478 65.1258 59.5998L66.2983 57.8434L65.3212 58.9412L64.3441 60.0389V58.7216C64.3441 58.7216 64.735 56.9652 64.735 56.3066C64.735 55.648 64.9304 54.9893 65.3212 54.5502C65.5166 54.1111 65.712 53.8916 65.3212 53.8916C65.1258 53.8916 64.9304 53.8916 64.9304 53.0134C64.9304 52.1352 64.9304 51.9157 65.5166 51.9157C65.9074 51.9157 66.1029 52.1352 66.2983 53.233L66.4937 53.0134ZM67.8616 60.6975C67.8616 60.6975 67.4707 62.0148 66.2983 63.3321C65.3212 64.2102 64.5396 64.8689 64.5396 64.8689C64.5396 64.8689 64.5396 64.4298 64.5396 64.2102C64.5396 63.5516 67.4708 59.8193 68.057 59.8193C68.057 59.8193 68.2524 60.2584 68.2524 60.6975H67.8616ZM67.8616 63.5516C67.8616 63.5516 68.057 67.2839 68.2524 70.3575C68.2524 75.4071 68.2524 76.0657 67.8616 76.7243C67.4708 77.1634 66.8845 77.383 66.1029 77.383C64.3441 77.383 63.9533 76.2852 63.9533 71.8943V68.6011L65.3212 66.6252C66.6891 64.8689 66.6891 64.8689 65.5166 65.9666C64.1487 67.5034 63.9533 67.5034 63.9533 66.6252C63.9533 66.1861 64.5396 65.0884 65.712 63.9907C66.6891 62.893 67.4708 62.2343 67.4708 62.2343C67.4708 62.2343 67.4708 62.893 67.6662 63.5516H67.8616ZM54.378 79.1393V80.0175C53.7918 80.6761 29.5605 81.1152 29.9513 80.2371C29.9513 80.0175 29.9513 80.0175 29.7559 80.2371C29.5605 80.4566 28.7788 80.6761 27.9972 80.6761C26.8247 80.6761 26.6293 80.6761 27.0201 80.0175C27.0201 80.0175 26.8898 80.0175 26.6293 80.0175C26.6293 80.0175 25.2614 80.6761 24.2843 80.6761H22.721L23.6981 79.798C23.6981 79.798 24.8706 78.9198 27.6063 78.9198C29.5605 78.9198 30.5376 78.9198 30.3421 79.3589C30.3421 79.5784 30.3421 79.5784 30.733 79.3589C31.5146 78.9198 36.9862 78.9198 36.7908 79.3589C36.7908 79.5784 36.7908 79.5784 37.1816 79.3589C37.5724 79.3589 39.722 78.9198 42.2624 78.9198C44.6073 78.9198 47.734 78.9198 49.1019 78.7002C53.5964 78.2611 53.9872 78.2611 54.1826 79.1393H54.378ZM23.5027 80.0175C23.5027 80.0175 22.3302 80.8957 20.5715 80.8957C18.6173 80.8957 18.6173 80.8957 18.8127 80.2371C19.0081 79.798 19.0081 79.798 18.6173 80.2371C18.0311 80.6761 17.4448 80.8957 15.8815 80.8957C13.5366 80.8957 13.3411 80.8957 13.1457 79.798C13.1457 79.1393 13.1457 79.1393 18.6173 79.1393H24.2843L23.3072 80.0175H23.5027ZM11.7778 81.1152C11.7778 81.1152 12.1687 82.213 12.1687 82.6521C12.1687 83.0911 8.4558 86.6039 8.06497 86.6039C7.67414 86.6039 8.06497 84.628 8.26038 84.1889C8.4558 83.7498 8.65121 83.7498 8.26038 84.1889C7.86956 84.1889 7.67414 84.1889 7.67414 84.1889C7.67414 84.1889 7.67414 83.5302 7.67414 83.3107C7.67414 82.8716 8.06497 82.6521 9.04204 81.9934C9.82369 81.5543 10.8008 80.8957 10.9962 80.6761C11.387 80.0175 11.387 80.0175 11.9732 81.3348L11.7778 81.1152ZM55.1597 82.213C55.1597 82.213 53.9872 82.8716 48.711 83.0911C45.9752 83.0911 43.044 83.3107 42.067 83.5302C36.9862 83.9693 32.2963 84.1889 32.4917 83.5302V83.0911C32.4917 83.0911 32.1009 83.0911 31.9055 83.5302C31.9055 83.5302 31.1238 83.9693 30.3421 83.9693H28.9742L29.5605 83.3107C30.1467 82.8716 30.5376 82.6521 31.5146 82.8716C32.1009 82.8716 32.8825 82.8716 33.0779 82.8716C33.2733 82.8716 34.2504 82.6521 35.0321 82.6521C36.5954 82.6521 36.5954 82.6521 36.2046 83.3107C35.8137 83.7498 35.8137 83.7498 36.2046 83.3107C36.5954 82.8716 38.1587 82.8716 43.044 82.6521C46.5615 82.6521 50.2743 82.4325 51.4468 82.213C52.6193 82.213 53.7918 81.9934 53.9872 81.7739C53.9872 81.7739 54.378 81.7739 54.378 81.9934L55.1597 82.213ZM26.6293 83.3107C26.6293 83.3107 25.4568 83.7498 23.1118 83.7498C20.376 83.7498 19.9852 83.7498 20.1806 83.3107C20.376 82.8716 21.3531 82.8716 23.5027 82.8716C25.066 82.8716 26.4339 82.8716 26.6293 82.8716C27.0201 82.4325 27.0201 82.8716 26.6293 83.5302V83.3107ZM29.3651 83.3107C29.3651 83.3107 28.388 83.7498 27.8018 83.7498C26.2385 83.7498 26.6293 83.0911 28.388 82.6521C29.7559 82.4325 29.9513 82.6521 29.3651 83.0911V83.3107ZM19.5944 83.3107C19.5944 83.3107 17.8357 83.9693 17.8357 83.3107C17.8357 83.0911 17.8357 83.0911 17.4448 83.3107C17.054 83.7498 15.2953 83.9693 15.4907 83.3107C15.4907 83.3107 15.4907 83.3107 14.9045 83.3107C14.1228 83.9693 14.1228 83.9693 14.1228 83.3107C14.1228 82.6521 14.3182 82.6521 17.054 82.6521C19.5944 82.6521 19.9852 82.6521 19.5944 83.0911V83.3107ZM11.9732 86.1648C11.9732 86.1648 11.387 86.6039 11.1916 86.6039C10.9962 86.6039 10.8008 86.6039 10.8008 86.6039C10.8008 87.043 9.23745 87.2625 8.84662 86.8234C8.84662 86.8234 9.43286 85.9452 10.4099 85.0671L12.1687 83.5302V84.628C12.1687 84.628 12.1687 85.9452 12.1687 86.1648H11.9732ZM54.7689 85.2866C54.7689 85.2866 53.7918 86.1648 53.0101 86.3843C51.4468 86.6039 40.1128 87.2625 37.1816 87.2625H35.2275L36.0091 86.6039C36.0091 86.6039 37.5725 85.7257 40.1128 85.5061C44.0211 85.0671 51.2514 84.628 53.5964 84.628C54.6386 84.628 55.0294 84.8475 54.7689 85.2866ZM14.709 85.7257C14.709 85.7257 14.709 85.9452 14.3182 86.1648H13.9274C13.9274 86.1648 13.9274 85.7257 14.3182 85.7257H14.709ZM16.2724 86.8234C16.2724 86.8234 15.2953 87.7016 14.709 87.7016H13.732L14.709 86.8234C15.2953 86.3843 15.8815 85.9452 16.2724 85.9452H17.054L16.2724 86.8234ZM19.0081 86.8234C19.0081 86.8234 17.8357 87.7016 17.2494 87.7016H16.2724L17.054 86.8234C17.054 86.8234 18.0311 85.9452 18.8127 85.9452H19.9852L19.2036 86.8234H19.0081ZM23.1118 86.1648C23.1118 86.1648 21.1577 87.7016 19.9852 87.7016H18.8127L19.5944 86.8234C19.5944 86.8234 20.7669 85.9452 21.7439 85.9452C22.5256 85.9452 23.1118 85.9452 23.1118 86.1648ZM26.6293 86.1648V86.6039C26.6293 86.6039 27.0201 86.6039 27.2155 86.1648C27.2155 86.1648 27.8018 85.7257 28.1926 85.7257C28.7788 85.7257 28.9742 85.7257 28.5834 86.1648C27.9972 87.043 28.5834 87.2625 29.3651 86.3843C29.9513 85.7257 30.3421 85.7257 31.5146 85.7257C32.8825 85.7257 33.0779 86.3843 31.9055 86.6039C31.71 86.6039 31.3192 86.8234 30.9284 87.043C30.5376 87.2625 29.3651 87.4821 26.4339 87.4821H22.3302L23.3072 86.6039C24.2843 85.7257 26.8247 85.5061 26.4339 86.1648H26.6293ZM35.2275 86.6039C35.2275 86.6039 34.055 87.4821 33.0779 87.4821C32.2963 87.4821 31.71 87.4821 31.71 87.4821C31.71 87.043 33.8596 85.9452 34.8367 85.9452H36.0091L35.0321 86.8234L35.2275 86.6039ZM12.3641 86.6039C12.3641 86.6039 12.1687 87.043 11.7778 87.043C11.5824 87.043 11.387 87.043 11.5824 86.6039C11.5824 86.6039 11.9732 86.1648 12.1687 86.1648C12.1687 86.1648 12.3641 86.1648 12.3641 86.6039Z" fill="#777777"/>
<path id="Vector_2" d="M39.5266 8.22615C41.0899 6.68933 41.2853 6.25024 41.0899 6.25024C41.0899 6.25024 40.3082 7.12842 39.5266 8.00661V8.22615Z" fill="#777777"/>
<path id="Vector_3" d="M62.7808 20.0816C61.4129 20.3011 57.7001 24.692 56.5276 27.107C55.7459 28.8634 55.5505 29.7416 55.5505 32.3761C55.5505 34.1325 55.5505 35.4498 55.7459 35.4498C55.9413 35.4498 56.723 36.5475 56.5276 36.9866C56.5276 36.9866 56.5276 37.4257 56.723 37.6452C56.9184 37.8648 57.7001 38.9625 58.0909 39.8407C59.4588 42.0361 62.39 43.5729 65.3212 43.7925C69.6203 44.2316 71.9653 42.6948 74.8965 37.8648C76.2644 35.6693 76.4598 34.7911 76.6552 33.2543C76.8506 30.4002 75.8735 26.8875 74.1148 24.2529C73.1377 22.9357 70.402 20.7402 68.6432 20.0816C67.2753 19.6425 64.5395 19.4229 62.5854 19.862L62.7808 20.0816ZM67.8616 22.0575C69.2295 22.4966 70.9882 23.5943 72.3561 24.9116C73.9194 26.4484 75.2873 29.9611 75.2873 32.8152C75.2873 34.352 75.0919 35.0107 74.1148 36.767C72.7469 38.9625 71.5744 40.4993 70.0111 41.3775C69.0341 42.0361 66.1028 42.2557 65.1258 41.8166C64.5395 41.8166 64.7349 41.3775 65.9074 40.2798C66.6891 39.6211 67.6662 38.5234 68.2524 38.0843C68.8386 37.4257 69.0341 37.2061 68.6432 37.4257C68.2524 37.4257 67.2753 38.5234 66.2983 39.4016C65.3212 40.2798 64.3441 41.1579 64.1487 41.3775C63.7579 41.597 61.8037 40.9384 61.8037 40.4993C61.8037 40.4993 62.39 39.4016 63.1716 38.5234L64.5395 36.5475L62.7808 38.5234L61.0221 40.4993L60.045 39.4016L59.068 38.3038L61.0221 36.1084C61.9992 35.0107 63.5625 33.2543 64.3441 32.3761C65.1258 31.4979 64.3441 32.3761 62.39 34.352C59.2634 37.8647 59.068 37.8648 58.6771 37.2061C58.4817 36.5475 58.6771 36.1084 61.6083 32.8152C63.5625 30.6198 63.9533 30.1807 62.39 31.937C61.0221 33.4738 59.4588 34.7911 59.068 35.2302C58.2863 35.8888 58.0909 35.8888 57.7001 35.2302C57.3092 34.5716 57.3092 34.5716 58.4817 33.4738L59.6542 32.1566L58.4817 33.0347L57.3092 33.9129V31.7175C57.7001 28.8634 58.2863 27.5461 60.2404 25.1311C61.0221 24.0334 61.8037 23.3747 61.6083 23.8138C61.4129 24.4725 61.6083 24.2529 63.3671 22.4966C64.3441 21.6184 65.9074 21.3988 67.8616 22.277V22.0575Z" fill="#777777"/>
<path id="Vector_4" d="M60.045 27.5461C60.045 27.5461 61.0221 26.4484 60.8267 26.4484C60.8267 26.4484 60.4358 26.8875 60.045 27.3265V27.5461Z" fill="#777777"/>
<path id="Vector_5" d="M58.4817 29.083L57.8955 29.9611L58.6771 29.3025C58.6771 29.3025 59.4588 28.4243 59.2634 28.4243C59.2634 28.4243 58.8726 28.8634 58.4817 29.083Z" fill="#777777"/>
<path id="Vector_6" d="M64.3441 34.3521C64.3441 34.3521 62.39 36.5475 61.6083 37.4257C60.8267 38.3039 61.6083 37.8648 63.1717 36.1084C64.735 34.3521 65.9074 33.0348 65.9074 33.0348C65.9074 33.0348 65.9074 33.0348 64.3441 34.3521Z" fill="#777777"/>
<path id="Vector_7" d="M65.712 35.4498L65.1258 36.328L65.9074 35.6694C65.9074 35.6694 66.6891 34.7912 66.4937 34.7912C66.4937 34.7912 66.1029 35.2303 65.712 35.4498Z" fill="#777777"/>
<path id="Vector_8" d="M65.5166 37.4257C63.9533 38.9625 62.39 40.4993 62.7808 40.4993C62.7808 40.4993 63.3671 40.0602 63.7579 39.6211C64.1487 39.182 65.1258 38.0843 65.9075 37.4257C67.6662 35.6693 67.2754 35.6693 65.3212 37.4257H65.5166Z" fill="#777777"/>
<path id="Vector_9" d="M42.4578 18.9839C42.4578 18.9839 38.1587 19.423 34.4458 20.0816C30.733 20.5207 25.6522 21.1793 23.1118 21.1793C18.8127 21.3989 18.6173 21.3989 18.6173 22.0575C18.6173 22.7162 18.8127 22.7162 22.3302 22.9357C24.8706 22.9357 28.9742 22.7162 34.8367 22.0575C39.722 21.3989 44.0211 20.9598 44.8028 21.1793C46.1706 21.1793 47.1477 20.3012 46.5615 19.6425C46.1707 18.9839 45.389 18.9839 42.4578 19.423V18.9839Z" fill="#777777"/>
<path id="Vector_10" d="M12.7549 25.1312C12.9503 24.9116 13.3411 24.6921 13.3411 24.4725C13.3411 24.253 13.1457 24.4725 12.7549 24.9116V25.1312Z" fill="#777777"/>
<path id="Vector_11" d="M32.2963 26.2288C28.1926 26.6679 23.3073 27.107 21.5485 27.107C19.0082 27.107 18.4219 27.107 18.2265 27.7656C18.2265 28.2047 18.2265 28.4243 18.6173 28.8634C19.399 29.522 22.5256 29.3025 32.8825 28.2047C36.4 27.7656 40.8945 27.5461 42.4578 27.5461C45.1936 27.5461 45.389 27.5461 45.5844 26.8875C45.5844 26.4484 45.5844 26.0093 45.5844 25.7897C45.1936 25.1311 40.5037 25.3506 32.2963 26.4484V26.2288Z" fill="#777777"/>
<path id="Vector_12" d="M12.5595 32.5957C13.7319 31.2784 14.709 30.1807 14.709 30.1807C14.709 29.9612 14.3182 30.1807 12.3641 32.5957H12.5595Z" fill="#777777"/>
<path id="Vector_13" d="M41.4807 32.5957C41.4807 32.5957 26.6293 33.913 23.3072 33.6935C19.7898 33.6935 19.2036 33.6935 19.2036 34.5716C19.2036 35.8889 21.7439 36.1085 32.2963 35.2303C44.6073 34.3521 44.6073 34.3521 44.8028 33.6935C44.8028 33.2544 44.8028 33.0348 44.0211 32.8153C43.2394 32.3762 41.6761 32.3762 41.4807 32.8153V32.5957Z" fill="#777777"/>
<path id="Vector_14" d="M35.0321 40.4993C32.2963 40.9384 27.6063 41.3775 24.8705 41.597C21.9393 41.8165 19.5944 42.2556 19.399 42.4752C18.6173 44.012 21.3531 44.2315 31.3192 43.1338C34.8367 42.6947 39.9174 42.2556 42.2624 42.2556H46.7569V40.2797H43.4349C41.6761 40.2797 37.7679 40.2797 35.0321 40.7188V40.4993Z" fill="#777777"/>
<path id="Vector_15" d="M13.3411 52.7939C11.7778 54.5502 10.6053 55.8675 10.6053 56.087C10.6053 56.087 11.9732 54.7698 13.5366 53.0134C15.0999 51.257 16.2724 49.7202 16.2724 49.7202C16.2724 49.7202 14.9045 51.0375 13.1457 52.7939H13.3411Z" fill="#777777"/>
<path id="Vector_16" d="M17.2494 58.063C17.2494 58.063 15.2953 60.6975 13.732 62.4539C12.1687 64.2102 10.9962 65.7471 11.1916 65.7471C11.5824 65.7471 18.2265 57.4043 18.2265 56.9652C18.2265 56.7457 18.0311 56.9652 17.2494 57.8434V58.063Z" fill="#777777"/>
<path id="Vector_17" d="M19.0081 62.4539C19.2035 62.2343 19.5944 62.0148 19.5944 61.7952C19.5944 61.5757 19.3989 61.7952 19.0081 62.2343V62.4539Z" fill="#777777"/>
</g>
</svg>
