<svg width="80" height="90" viewBox="0 0 80 90" fill="none" xmlns="http://www.w3.org/2000/svg">
<g id="Group">
<path id="Vector" d="M37.5033 2.50581C36.2984 3.62587 35.0935 4.74592 34.6416 5.19395C34.1898 5.64197 32.6836 6.98603 31.1775 8.3301C29.6713 9.45016 27.4121 11.6903 26.0565 13.0343C24.701 14.3784 21.8393 17.0666 19.58 18.6346C17.3208 20.4267 14.3085 22.8909 12.8023 24.459C10.3925 26.9231 3.16293 33.1954 1.20492 34.7635C0.602462 35.2115 0.451836 35.6596 0.753067 37.2276C0.753067 37.4516 0.753075 38.1237 0.451843 38.7957C0.150612 39.4678 0 41.2599 0 44.396C0 48.6523 -5.61087e-07 48.8763 0.602462 51.1164C1.05431 52.2364 1.65676 54.0285 2.10861 54.7006C3.01231 56.2687 4.8197 57.3887 6.62709 57.6127C10.8443 58.0607 15.9653 58.9568 17.7726 59.4048C18.9776 59.6288 20.785 59.8528 21.9899 59.8528C23.3454 59.8528 24.701 60.0769 25.7553 60.5249C26.659 60.9729 28.4664 61.1969 29.5207 61.4209C30.7256 61.4209 32.0812 61.869 32.6836 62.093C33.2861 62.093 34.6416 62.541 35.6959 62.765C36.7502 62.765 38.407 63.437 39.4613 63.6611C40.9675 64.1091 41.4193 64.1091 42.7749 63.6611C44.281 63.213 44.7329 62.765 47.2933 59.4048C48.6489 57.6127 50.0044 56.4927 52.7155 54.4766C54.6735 52.9085 57.0834 50.8924 57.9871 49.7723C58.8908 48.6523 60.8488 46.8602 62.5055 45.2921C64.0117 43.948 66.4215 41.7079 67.6265 40.3638C69.7351 38.1237 70.7894 37.2276 75.3079 33.1954C77.5671 31.4033 80.2782 27.5951 79.977 26.6991C79.977 26.2511 79.5251 26.2511 78.6214 26.2511C77.2659 26.2511 75.7597 25.131 75.1573 23.7869C74.7054 22.6669 74.7054 19.0827 75.1573 17.0666C75.3079 16.1705 75.9103 14.1544 76.5128 13.0343C77.2659 11.2423 77.5671 10.5702 77.4165 9.8982C77.2659 9.00215 76.814 9.00215 75.9103 9.8982C75.4585 10.3462 75.0066 10.3462 74.5548 10.1222C74.2536 10.1222 70.4882 9.22615 66.4215 8.3301C49.402 4.96992 40.8169 2.5058 40.2144 1.16172C39.9132 0.489689 39.9132 0.713694 37.6539 2.7298L37.5033 2.50581ZM42.1724 3.84987C43.6786 4.5219 46.3896 5.19393 51.9624 6.53801C54.5229 7.21004 57.0834 7.65807 57.8364 7.88209C59.6438 8.33011 66.1203 9.67419 68.0783 9.8982C68.982 9.8982 69.7351 10.3462 69.7351 10.3462C69.7351 10.3462 70.94 10.5702 72.1449 10.5702H74.4042L73.8017 11.2423C73.8017 11.2423 72.1449 12.8104 70.94 13.7064C69.7351 14.6024 68.0783 16.1705 67.1746 17.2906C66.2709 18.4106 64.3129 20.2027 62.0537 21.5468C58.8908 23.7869 58.1377 24.459 56.4809 26.6991C54.9747 28.7152 53.7698 29.8352 51.5106 31.6273C49.8538 32.7474 46.9921 35.4355 45.1847 37.2276C41.1181 41.2598 36.9009 44.396 35.6959 44.396C34.6416 44.396 31.7799 43.276 31.7799 42.8279C31.7799 42.8279 31.4787 42.6039 31.0268 42.6039C30.575 42.6039 29.8219 42.6039 29.3701 42.1559C28.7676 41.9319 27.4121 41.4839 26.3578 41.0358C25.3034 40.5878 24.5504 40.3638 24.701 40.1398C24.701 40.1398 24.2491 39.6918 23.1948 39.6918C22.2911 39.6918 21.0862 39.2437 20.4837 39.2437C20.0319 39.2437 18.0739 38.5717 16.2665 38.1237C14.4591 37.6757 13.1036 37.4517 13.4048 37.4517C13.706 37.4517 14.0073 37.2276 14.1579 37.0036C14.1579 37.0036 13.5554 37.0036 12.1999 37.0036C9.48878 37.2276 9.03693 36.7796 11.4468 35.8836C12.3505 35.6596 13.2542 35.2115 13.5554 35.2115C13.8566 35.2115 13.8566 35.2115 13.5554 35.2115C13.2542 35.2115 12.1999 35.4356 11.1456 35.8836C9.33817 36.5556 7.07893 36.7796 6.47647 36.3316C6.17524 36.1076 6.17524 35.8836 6.47647 35.8836C7.07893 35.8836 9.33817 35.2115 9.18756 34.9875C9.18756 34.9875 8.13324 34.9875 7.07893 35.4355C4.51846 36.1076 3.46415 36.1076 3.31354 35.4355C3.16292 34.7635 4.51846 33.4194 5.27154 33.4194C5.57277 33.4194 5.7234 33.4194 5.7234 33.1954C5.42217 32.5234 7.07893 31.4033 9.03694 30.9553C10.0912 30.7313 11.1456 30.2833 11.4468 30.2833C11.8986 30.0593 11.8986 30.0593 11.4468 30.2833C11.1456 30.2833 10.2419 30.5073 9.48879 30.7313H8.13325L8.88632 30.2833C9.33816 29.8353 9.79001 29.3872 10.2419 29.3872C10.5431 29.3872 10.8443 28.9392 10.9949 28.7152C11.4468 27.8191 16.869 22.8909 17.4714 22.8909C17.7727 22.8909 17.9233 22.8909 17.9233 22.4429C17.9233 22.4429 18.5257 21.5468 19.4294 20.8748C20.785 19.7547 21.538 19.5307 24.3997 19.0827C26.2071 18.6347 27.5627 18.4106 27.1108 18.4106C26.8096 18.4106 25.6047 18.4106 24.5504 18.8587C23.4961 19.3067 22.5924 19.0827 22.4417 18.8587C22.2911 18.6347 23.0442 17.9626 24.0985 17.2906C25.0022 16.3945 26.5084 15.0505 27.4121 14.1544C29.3701 12.1383 31.4787 10.3462 31.9305 10.3462C32.3824 10.3462 35.2441 9.00215 34.9428 9.00215C34.9428 9.00215 34.1898 9.00214 33.5873 9.45016C32.9848 9.67418 32.3824 9.8982 32.3824 9.8982C32.0812 9.8982 35.3947 6.98604 35.9972 6.98604C36.449 6.98604 36.5996 6.76202 36.2984 6.53801C36.1478 6.53801 36.2984 6.08999 36.9009 6.08999C37.3527 6.08999 37.6539 5.64196 37.5033 5.64196C37.3527 5.64196 37.5033 4.96992 38.2564 4.5219C39.3107 3.62585 39.7625 3.62585 42.1724 4.5219V3.84987ZM74.2536 14.1544L73.8017 15.2745C73.8017 15.7225 72.898 17.0666 72.5968 16.8426C72.5968 16.8426 72.4462 16.8426 72.2955 17.2906C72.2955 17.7386 72.2955 17.7386 72.898 17.2906C73.3499 17.0666 73.3499 17.2906 73.1992 20.2027V23.3389L71.9943 24.683C71.3919 25.355 70.1869 26.6991 69.2832 27.5951C68.3795 28.4912 66.8734 29.8352 65.9697 30.9553C65.066 31.8514 63.108 33.8675 61.7524 35.2115C60.3969 36.5556 57.8364 39.0197 56.3303 40.5878C52.4143 44.62 46.8415 49.9963 46.3896 49.7723C46.239 49.7723 46.0884 49.7723 46.239 49.7723C46.3896 50.2203 45.6366 50.8924 45.3353 50.6684C45.1847 50.6684 45.1847 50.6684 45.3353 50.6684C45.4859 51.1164 42.1724 54.9246 40.5156 56.0446C39.9132 56.4927 39.3107 56.9407 39.3107 57.1647C39.1601 57.6127 37.8045 57.1647 37.8045 56.9407C37.8045 56.9407 38.407 56.0446 39.1601 55.1486C39.9132 54.4766 42.0218 52.2364 43.9798 50.2203C45.9378 48.2042 48.6489 45.5161 50.3056 43.948C51.9624 42.3799 54.3723 39.9158 55.8784 38.5717C57.3846 37.0036 59.6438 34.9875 60.9994 33.6434C62.3549 32.5234 64.7648 30.2833 66.2709 28.7152C67.7771 27.1471 69.4339 25.803 69.8857 25.355C70.3375 24.907 70.6388 24.683 70.3376 24.459C70.1869 24.459 69.7351 24.459 69.4339 24.907C67.4759 26.9231 62.3549 31.8514 60.6981 33.1954C59.6438 34.0915 57.234 36.3316 55.5772 38.1237C53.7698 39.9158 51.0587 42.6039 49.402 44.172C47.7452 45.7401 45.6366 47.7562 44.7329 48.8763C43.8292 49.7723 41.8712 51.7884 40.365 53.3565C37.2021 56.4927 36.9009 56.4927 36.9009 53.3565V51.5644H37.8045H38.7082L37.9552 52.4605C36.2984 54.4766 37.5033 53.3565 41.8712 49.1003C52.8661 38.1237 58.4389 32.5234 60.5475 30.7313C61.7524 29.6112 63.5598 27.8192 64.6142 26.6991C67.6265 23.5629 69.5845 21.5468 70.7894 20.8748C71.3919 20.4268 71.9943 20.2027 71.9943 19.9787C71.9943 19.5307 71.9943 19.5307 70.4882 20.6508C69.7351 21.0988 68.0783 22.6669 66.8734 23.7869C64.4635 26.2511 63.7105 26.9231 59.3426 30.5073C56.4809 32.9714 47.2933 42.1559 46.5403 43.5C46.239 43.948 46.0884 44.172 46.239 43.948C46.239 43.724 46.239 43.948 45.6366 44.172C45.1847 44.62 44.8835 45.0681 44.8835 45.2921C44.8835 45.2921 44.8835 45.5161 44.7329 45.2921H44.4316C44.4316 45.2921 43.8292 46.1881 43.2267 46.8602C42.6243 47.5322 42.0218 48.2042 41.8712 48.4282C41.8712 48.4282 41.1181 49.3243 40.365 49.9963C39.3107 50.8924 39.0095 51.1164 38.407 50.8924C37.8045 50.6684 38.1058 50.2203 42.1724 46.1881C44.5822 43.724 47.444 41.0358 48.3477 39.9158C53.0167 35.2115 62.9574 26.0271 63.8611 25.803C64.1623 25.803 64.3129 25.579 65.3672 24.2349C66.8734 22.4429 68.3795 21.0988 70.4882 19.5307C71.5425 18.8587 72.4462 17.9626 72.4462 17.7386C72.4462 17.7386 72.2956 17.2906 71.9943 17.0666C71.6931 16.6185 71.5425 16.6185 71.8437 17.0666C71.8437 17.5146 71.8437 17.5146 71.6931 17.2906C71.5425 17.2906 70.1869 17.9626 68.5302 19.0827C65.6685 21.3228 65.3672 21.0988 68.0783 19.0827C69.4339 17.9626 71.5425 15.9465 71.9943 15.0505C71.9943 14.8264 70.4882 16.1705 69.5845 17.0666C68.8314 17.7386 67.9277 18.6346 67.9277 18.4106C67.9277 18.4106 69.8857 16.3945 71.0906 15.2745C71.3919 15.0505 71.8437 14.8264 71.9943 14.8264C72.2956 14.8264 73.9523 13.4824 74.2536 12.8103C74.2536 12.8103 74.4042 12.3623 74.5548 12.3623C74.7054 12.3623 74.5548 12.8103 74.2536 13.2584V14.1544ZM71.6931 18.4106C71.6931 18.4106 71.6931 18.8587 71.6931 19.0827C71.5425 19.0827 71.5425 19.0827 71.6931 19.0827V18.6346C71.3919 18.6346 71.5425 18.6346 71.6931 18.6346C71.6931 18.6346 71.9943 18.6347 72.1449 18.8587L71.6931 18.4106ZM69.8857 19.5307C69.8857 19.5307 62.6561 26.6991 60.6981 28.2672C57.5352 30.7313 50.7575 37.2276 46.239 41.9319C44.281 43.948 42.7749 45.5161 42.6243 45.5161C42.4736 45.5161 42.6242 43.724 42.7749 43.5C42.7749 43.724 42.7749 43.948 42.7749 43.724C42.9255 43.724 43.0761 43.276 43.0761 43.0519C43.0761 42.8279 43.2267 42.6039 43.5279 42.6039C43.6786 42.6039 43.9798 42.6039 43.8292 42.6039C43.8292 42.6039 43.8292 42.3799 43.9798 42.3799C44.1304 42.3799 44.1304 42.3799 44.1304 42.6039C44.1304 42.6039 44.1304 42.8279 44.4316 42.6039C44.5823 42.6039 44.7329 42.1559 44.7329 41.7079C44.7329 41.2599 44.7329 40.8118 44.8835 40.5878C44.8835 40.8118 44.8835 41.2599 45.1847 41.2599C45.3353 41.2599 45.4859 41.2599 45.3353 41.2599C45.3353 41.2599 45.3353 40.8118 45.3353 40.5878C45.9378 39.4678 45.0341 39.9158 43.2267 41.7079C40.8169 43.948 38.2564 46.1881 38.1058 45.7401C37.8046 45.2921 38.407 44.396 40.5156 42.8279C41.7206 41.9319 44.281 39.6918 45.9378 37.8997C48.7995 34.9875 53.1674 31.4033 51.8118 32.9714C50.7575 34.0915 51.6612 33.8675 53.0167 32.5234C53.7698 31.8513 54.5229 31.1793 54.8241 31.1793C55.1254 31.1793 55.276 30.9553 55.276 30.7313C55.276 30.5073 55.276 30.2833 55.4266 30.7313C55.7278 30.9553 56.6315 30.2833 56.4809 29.8352C56.4809 29.8352 56.4809 29.3872 56.4809 29.1632C56.6315 29.1632 56.6315 29.1632 56.4809 29.1632C56.4809 29.3872 56.4809 29.6112 56.4809 29.3872C56.6315 29.3872 56.7821 28.9392 56.7821 28.7152C56.7821 28.7152 56.7821 28.4912 57.0834 28.4912C57.234 28.4912 57.5352 28.4912 57.3846 28.0431C57.3846 27.8191 57.3846 27.5951 57.6858 28.0431C57.9871 28.0431 57.9871 28.0431 57.8364 27.8191C57.8364 27.3711 57.8364 27.5951 57.8364 27.8191C58.2883 28.2672 62.5055 24.235 62.5055 23.5629C62.5055 23.3389 62.5055 23.1149 62.2043 23.1149C62.2043 23.1149 61.9031 23.3389 61.9031 23.5629C61.9031 23.5629 61.9031 24.0109 61.7524 24.2349C61.7524 24.0109 61.7524 23.7869 61.7524 24.0109C61.6018 24.0109 61.4512 24.459 61.4512 24.683C61.4512 24.907 61.4512 24.907 61.15 24.683C60.8488 24.683 60.8488 24.683 60.9994 24.683C60.9994 24.683 60.9994 25.131 60.9994 25.355C60.9994 25.355 60.8488 25.355 60.9994 24.907C60.9994 24.011 60.9994 24.011 60.2463 24.907C59.9451 25.355 59.9451 25.355 60.2463 25.355C60.3969 25.355 60.6981 25.355 60.6981 25.579C60.6981 25.803 60.5475 26.0271 60.3969 25.803C60.0957 25.803 60.0957 25.803 60.2463 25.803C60.2463 25.803 60.2463 26.2511 60.2463 26.4751C60.2463 26.4751 60.0957 26.4751 60.2463 26.027C60.2463 25.579 60.2463 25.355 60.0957 25.355C59.9451 25.355 59.7944 25.803 59.7944 26.2511C59.7944 26.6991 59.7945 26.9231 59.6438 26.9231C59.6438 26.9231 59.4932 26.4751 59.6438 26.4751C59.7945 26.0271 59.6438 26.0271 59.0414 26.4751C58.7401 26.4751 58.7401 26.9231 58.7401 27.1471C58.7401 27.3711 58.7401 27.3711 58.7401 27.1471C58.7401 27.1471 58.2883 27.1471 57.9871 27.1471C57.8364 27.3711 57.9871 27.1471 58.5895 26.2511C59.4932 24.907 62.0537 22.8909 61.7524 23.7869C61.4512 24.459 61.9031 24.235 62.9574 22.8909C64.4635 21.3228 64.7648 21.0988 64.4635 21.5468C64.1623 22.2188 64.1623 22.8909 64.3129 22.8909C64.3129 22.8909 64.7648 22.6669 65.066 22.2188C66.4215 20.8748 70.1869 17.9626 69.5845 18.8587L69.8857 19.5307ZM74.103 25.803C74.103 25.803 73.0486 27.5951 69.8857 30.0593C68.5302 31.1793 66.1203 33.4194 64.6142 34.9875C63.108 36.5556 58.7401 40.8118 54.9747 44.172C51.2094 47.5322 46.8415 52.0124 45.1847 54.0285C41.1181 58.7328 40.9675 58.7328 40.2144 58.2848L39.4613 57.8367L41.5699 55.5966C42.7749 54.4766 44.5823 52.4604 45.7872 51.1164C46.8415 49.9963 49.2514 47.5322 50.9081 45.9641C52.7155 44.396 55.276 41.7079 56.6315 40.3638C58.1377 38.7957 60.2463 36.5556 61.6018 35.4355C62.8068 34.3155 64.7648 32.5234 65.6685 31.4033C66.7228 30.2833 68.2289 28.9392 68.982 28.0431C69.8857 27.3711 71.0906 26.027 71.8437 25.131L73.0486 23.5629L73.5005 24.2349C73.5005 24.2349 73.9523 25.355 73.9523 25.579L74.103 25.803ZM75.6091 27.1471C75.6091 27.1471 76.5128 27.8191 76.814 27.8191C77.8683 27.8191 76.6634 29.3872 73.9523 31.4033C73.0486 32.0754 72.5968 32.2994 72.898 32.0754C73.9523 30.9553 76.2116 28.0431 76.2116 27.8191C76.2116 27.8191 75.9103 27.8191 75.7597 27.8191C75.1573 28.0431 73.5005 30.0593 73.6511 30.5073C73.6511 30.5073 73.6511 30.5073 73.5005 30.5073C73.1993 30.2833 68.0783 34.5395 65.3672 37.2276C64.1623 38.3477 61.3006 41.2599 59.0414 43.276C54.8241 47.0842 48.4983 53.1325 44.4316 57.6127C42.6243 59.6288 42.1724 59.8528 41.2687 59.8528C40.365 59.8528 40.2144 59.8529 40.5156 59.4048C40.8169 58.9568 40.6662 58.9568 40.0638 58.9568C39.1601 58.9568 38.407 58.5088 38.8589 58.0608C39.1601 57.8367 39.7626 58.0608 40.8169 58.5088C41.1181 58.5088 41.7206 58.0608 42.6243 57.1647C43.3773 56.2687 44.1304 55.5966 44.281 55.8206C44.1304 55.3726 45.3353 54.0285 45.6366 54.2525C45.6366 54.2525 45.6366 53.5805 45.9378 53.3565C46.239 52.9085 46.239 52.9085 46.0884 53.3565C45.9378 53.8045 46.0884 53.8045 46.3896 53.3565C46.6909 53.3565 46.9921 52.6845 46.9921 52.4605C46.9921 52.2364 46.9921 52.4605 46.6909 52.4605C46.239 52.9085 46.239 52.9085 46.6909 52.4605C46.8415 52.0124 47.1427 51.7884 47.1427 51.7884C47.5946 51.7884 47.8958 51.7884 47.7452 51.3404C47.7452 51.3404 49.8538 49.7723 52.113 47.5322C54.3723 45.2921 57.8364 41.9319 59.6438 40.3638C61.4512 38.7957 64.1623 36.3316 65.3672 34.9875C66.7228 33.6435 68.8314 31.6273 70.1869 30.7313C71.5425 29.6112 72.898 28.2672 73.5005 27.8191C73.9523 27.1471 74.5548 26.6991 74.5548 26.6991C74.5548 26.6991 75.0066 26.9231 75.4585 27.3711L75.6091 27.1471ZM59.7944 31.1793C59.7944 31.1793 59.4932 31.4033 59.3426 31.6273C58.8908 32.0754 58.8908 32.0754 59.3426 31.6273C59.7944 30.9553 59.9451 30.9553 59.9451 31.1793H59.7944ZM72.5968 31.8514C72.5968 31.8514 71.9943 32.5234 71.2412 33.1954C70.4882 33.8675 70.0363 34.3155 70.0363 34.5395C70.0363 34.5395 70.3375 34.5395 70.6388 34.3155C71.5425 33.6434 71.0906 34.3155 70.0363 35.2115C69.4339 35.6595 68.0783 37.0036 67.024 38.3477C65.9697 39.4678 63.7105 41.7079 62.0537 43.276C60.3969 44.8441 58.1377 47.0842 57.0834 48.2042C55.4266 49.9963 52.4143 52.6845 52.4143 52.2364C52.4143 51.7884 56.3303 47.9802 60.0957 44.62C64.0117 41.2598 68.8314 36.1076 68.5302 35.8836C68.5302 35.8836 67.3252 37.0036 65.9697 38.3477C64.6142 39.6918 62.5055 41.9319 60.9994 43.276C54.9747 48.6523 51.8118 52.0124 51.9624 52.4605C51.6612 52.2364 47.8958 55.5966 46.239 57.6127C44.281 60.0769 43.2267 60.9729 42.7749 60.7489C42.1724 60.3009 51.36 50.6684 59.192 43.724C61.4512 41.7079 64.1623 39.2437 65.2166 38.1237C66.2709 37.0036 68.3796 35.2115 69.7351 34.0915C72.4462 31.8514 72.2955 31.8514 72.2955 32.0754L72.5968 31.8514ZM58.7401 32.2994C58.7401 32.2994 58.4389 32.5234 58.2883 32.7474C57.8364 33.1954 57.8364 33.1954 58.2883 32.7474C58.7401 32.0754 58.8908 32.0754 58.8908 32.2994H58.7401ZM72.4462 32.9714C72.4462 32.9714 72.1449 33.1954 71.9943 33.4194C71.5425 33.8675 71.5425 33.8675 71.9943 33.4194C72.4462 32.7474 72.5968 32.7474 72.5968 32.9714H72.4462ZM57.5352 33.1954C57.5352 33.1954 55.7278 34.9875 53.6192 37.2276C51.36 39.4678 49.7032 41.0358 49.8538 40.8118C50.155 40.3638 57.3846 32.9714 57.3846 32.9714L57.5352 33.1954ZM9.79002 38.7957C14.3085 39.6918 15.0616 39.9158 14.0073 40.1398H12.8023L14.3085 40.5878C15.0616 40.5878 16.4171 40.5878 17.1702 40.5878C18.2245 40.5878 18.3751 40.5878 17.7726 40.5878H17.0196L18.0739 41.0358C18.6763 41.0358 18.9776 41.0359 18.9776 41.4839C18.9776 41.4839 18.9776 41.7079 19.58 41.4839C19.8813 41.4839 21.3874 41.4839 22.5924 41.7079C24.701 42.1559 24.8516 42.1559 23.9479 42.3799C23.496 42.3799 21.9899 42.3799 20.9356 42.3799C19.7307 42.3799 17.0196 41.7079 14.6097 41.4839C12.3505 41.2599 10.0912 40.8118 9.6394 40.8118C9.18755 40.8118 7.6814 40.5878 6.32586 40.3638C3.16293 39.9158 1.958 39.4678 2.10861 38.5717C2.10861 38.1237 2.8617 37.6757 4.21724 37.4517C4.36785 37.4517 7.07894 37.8997 9.94064 38.5717L9.79002 38.7957ZM6.02462 40.8118C7.98263 41.0358 10.0913 41.4839 10.6937 41.7079C11.2962 41.7079 12.3505 41.9319 13.1036 42.1559C13.706 42.1559 14.3085 42.1559 14.4591 42.1559C14.4591 42.1559 15.0616 42.1559 15.8146 42.1559C19.7307 42.6039 22.1405 42.8279 25.6047 43.724C27.2614 44.172 29.0688 44.396 29.8219 44.396C31.1775 44.396 34.491 45.2921 35.2441 45.9641C35.5453 45.9641 35.8465 46.1881 36.1478 45.9641C36.7502 45.7401 36.7502 45.9641 36.1478 47.9802C35.9972 48.8763 35.6959 49.9963 35.6959 50.6684C35.6959 51.3404 35.6959 51.7884 35.3947 51.7884C35.2441 51.7884 33.5873 51.3404 31.9305 50.8924C28.9182 49.9963 22.4417 49.1003 22.1405 49.3243C22.1405 49.3243 23.7973 49.7723 26.0565 49.9963C28.3158 50.2203 31.1775 50.8924 32.6836 51.3404L35.3947 52.0124V53.5805C35.3947 53.5805 35.6959 55.5966 35.8465 56.0446C35.8465 56.7167 35.8465 56.9407 35.5453 56.9407C35.0935 56.9407 35.0935 56.9407 35.5453 56.9407C35.8465 56.9407 36.449 57.8367 37.0515 58.7328L37.9552 60.3009H36.449C35.6959 59.8529 34.1898 59.6288 33.2861 59.4048C32.3824 59.1808 30.7256 58.7328 29.6713 58.7328C28.617 58.7328 26.9602 58.2848 25.9059 57.8367C24.8516 57.3887 23.3454 57.1647 22.4417 57.1647C21.538 57.1647 20.0319 57.1647 19.1282 56.7167C18.2245 56.7167 16.7183 56.2687 15.9653 56.0446C15.0616 55.8953 14.911 55.746 15.5134 55.5966C15.5134 55.5966 15.5134 55.3726 13.5554 55.3726C12.0493 55.3726 9.48879 55.3726 7.98263 54.9246C4.97032 54.4766 3.916 54.0285 2.86169 52.2364C2.40985 51.5644 2.40985 51.3404 2.56047 50.8924C2.8617 50.4444 2.8617 50.6684 2.56047 50.8924C2.25924 50.8924 2.10862 50.8924 1.65677 49.5483C1.35554 48.6522 1.20492 47.3082 1.05431 46.6361V45.0681H2.10861H3.31354L2.25923 44.844H1.20492V43.0519C1.20492 42.1559 1.20491 41.0358 1.35553 40.8118C1.35553 40.3638 1.35553 39.9158 1.35553 39.6918C1.35553 39.4678 1.50616 39.2438 1.80739 39.6918C1.958 39.6918 3.7654 40.3638 5.7234 40.5878L6.02462 40.8118ZM28.0145 43.5C28.0145 43.5 29.0688 43.948 28.7676 43.948C28.3158 44.172 25.0022 43.724 25.0022 43.276C25.0022 43.052 26.3577 43.052 27.8639 43.276L28.0145 43.5ZM42.4736 44.62V45.0681C42.4736 45.0681 42.6243 45.2921 42.6243 45.5161C42.6243 46.1881 40.365 48.2042 40.0638 47.9802C40.0638 48.2042 37.9552 50.8924 37.5033 50.8924C37.5033 50.8924 37.3527 50.4444 37.3527 49.9963C37.3527 49.3243 37.8045 48.8763 39.3107 47.5322C41.4193 45.7401 41.7206 45.5161 41.4193 46.4121C41.4193 46.6361 41.4193 46.6361 41.4193 46.4121C41.5699 46.1881 41.8712 45.0681 41.7206 45.0681C41.7206 45.0681 40.8169 45.7401 39.7626 46.6361C37.6539 48.4282 37.3527 48.4282 37.8045 47.5322C38.1058 46.8601 38.2564 46.6361 38.8589 46.8602C38.8589 46.8602 39.9132 46.1881 40.8169 45.5161C42.6243 43.948 42.6243 43.948 42.4736 44.396V44.62Z" fill="#777777"/>
<path id="Vector_2" d="M32.2318 11.9143C32.2318 11.9143 31.9305 12.1383 32.2318 12.1383C32.3824 12.1383 32.8342 12.1383 32.9848 11.9143C33.2861 11.9143 33.2861 11.6903 32.9848 11.6903C32.8342 11.6903 32.3824 11.6903 32.2318 11.9143Z" fill="#777777"/>
<path id="Vector_3" d="M30.2738 12.5863C30.2738 12.5863 29.6713 12.8103 30.2738 12.8103C30.575 12.8103 31.0269 12.8103 31.3281 12.5863C31.9306 12.1383 31.3281 12.1383 30.4244 12.5863H30.2738Z" fill="#777777"/>
<path id="Vector_4" d="M18.3751 22.2188C18.3751 22.2188 18.6764 22.2188 19.1282 22.2188C19.5801 22.2188 20.0319 22.2188 20.0319 21.9948C20.0319 21.7708 18.3751 21.9948 18.2245 21.9948L18.3751 22.2188Z" fill="#777777"/>
<path id="Vector_5" d="M17.7727 24.2349C17.7727 24.2349 16.5677 24.6829 16.7184 24.6829C16.7184 24.6829 17.7727 24.6829 18.6764 24.2349C19.5801 24.0109 20.0319 23.7869 19.7307 23.7869C19.4294 23.7869 18.5257 23.7869 17.7727 24.2349Z" fill="#777777"/>
<path id="Vector_6" d="M14.6097 25.5791C14.6097 25.5791 14.3085 26.0271 14.6097 26.0271C14.6097 26.0271 15.0616 26.0271 15.2122 25.5791C15.3628 25.5791 15.5134 25.131 15.2122 25.131C15.2122 25.131 14.7603 25.1311 14.6097 25.5791Z" fill="#777777"/>
<path id="Vector_7" d="M6.77771 32.9714H6.02463L6.62709 33.1954C6.92832 33.1954 7.38017 33.1954 7.38017 32.9714V32.7474C7.38017 32.7474 6.92832 32.7474 6.62709 32.9714H6.77771Z" fill="#777777"/>
<path id="Vector_8" d="M5.72342 34.5395C4.51849 34.9875 3.7654 35.2115 4.06664 35.2115C4.97033 35.2115 7.68142 34.5395 7.98265 34.0914C7.98265 34.0914 8.13327 33.8674 7.98265 33.8674C7.98265 33.8674 6.77773 34.3154 5.5728 34.5395H5.72342Z" fill="#777777"/>
<path id="Vector_9" d="M11.1456 34.3154C11.1456 34.3154 10.6937 34.5394 11.1456 34.5394C11.4468 34.5394 11.8986 34.5394 12.1999 34.3154C12.6517 34.3154 12.6517 34.0914 12.1999 34.0914C11.8986 34.0914 11.4468 34.0914 11.1456 34.3154Z" fill="#777777"/>
<path id="Vector_10" d="M65.6685 27.8191C65.9697 27.8191 66.1203 27.3711 66.1203 27.3711C66.1203 27.1471 66.1203 27.3711 65.5179 27.8191H65.6685Z" fill="#777777"/>
<path id="Vector_11" d="M64.6142 28.9392C65.066 28.4912 65.066 28.2672 64.9154 28.2672C64.9154 28.2672 64.6142 28.4912 64.4635 28.9392H64.6142Z" fill="#777777"/>
<path id="Vector_12" d="M62.8068 30.2833C62.8068 30.2833 60.8488 32.0754 59.7944 32.9714C57.9871 34.5395 52.113 40.3638 50.7575 42.1559L50.3056 42.828L50.7575 42.3799C50.7575 42.3799 52.8661 40.3638 54.8241 38.3477C56.7821 36.3316 59.6438 33.6435 61.4512 32.0754C63.108 30.7313 64.4635 29.3873 64.4635 29.3873C64.4635 29.1632 64.0117 29.3873 63.108 30.2833H62.8068Z" fill="#777777"/>
<path id="Vector_13" d="M58.4389 37.0036L59.0414 36.3316C59.0414 36.1075 58.8908 36.3316 58.2883 37.0036H58.4389Z" fill="#777777"/>
<path id="Vector_14" d="M56.6315 39.0197C57.0834 38.5717 57.0834 38.3477 56.9328 38.3477C56.9328 38.3477 56.6315 38.5717 56.4809 39.0197H56.6315Z" fill="#777777"/>
<path id="Vector_15" d="M55.276 40.3638L54.5229 41.2598L55.276 40.5878L56.0291 39.6917C56.0291 39.4677 56.0291 39.6917 55.276 40.3638Z" fill="#777777"/>
<path id="Vector_16" d="M53.7698 41.9319C53.7698 41.9319 53.318 42.604 53.7698 42.38C54.0711 42.38 54.3723 41.7079 54.3723 41.7079C54.5229 41.2599 54.3723 41.2599 53.7698 42.1559V41.9319Z" fill="#777777"/>
<path id="Vector_17" d="M48.9501 43.4999C48.0464 44.396 47.7452 45.068 48.4983 44.396C49.1007 43.948 50.155 42.6039 50.0044 42.6039C50.0044 42.6039 49.5526 43.0519 48.9501 43.4999Z" fill="#777777"/>
<path id="Vector_18" d="M51.6612 44.172L52.2637 43.5C52.2637 43.2759 52.1131 43.5 51.5106 44.172H51.6612Z" fill="#777777"/>
<path id="Vector_19" d="M46.3896 46.4121L45.6366 47.3082L46.3896 46.6361L47.1427 45.7401C47.1427 45.5161 47.1427 45.7401 46.3896 46.4121Z" fill="#777777"/>
<path id="Vector_20" d="M45.0341 47.7562C45.486 47.3082 45.486 47.0842 45.3353 47.0842C45.3353 47.0842 45.0341 47.3082 44.8835 47.7562H45.0341Z" fill="#777777"/>
<path id="Vector_21" d="M44.1304 48.8763C44.4316 48.4282 44.5823 48.2042 44.4316 48.2042C44.4316 48.2042 44.1304 48.4282 43.9798 48.8763H44.1304Z" fill="#777777"/>
<path id="Vector_22" d="M41.5699 51.7884C41.7206 51.5644 42.0218 51.3404 42.0218 51.1164C42.0218 50.8924 41.8712 51.1164 41.5699 51.5644V51.7884Z" fill="#777777"/>
<path id="Vector_23" d="M63.8611 23.1149V24.4589C64.1623 24.4589 64.3129 23.1149 64.0117 23.1149C64.0117 23.1149 63.8611 23.1149 63.7105 23.1149H63.8611Z" fill="#777777"/>
<path id="Vector_24" d="M53.4686 33.6434C51.8118 35.2115 51.5106 35.4355 51.8118 34.7635C52.1131 34.0914 51.5106 34.5395 48.6489 37.2276C47.1427 38.7957 45.7872 40.1398 45.9378 40.3638C46.0884 40.8118 46.239 40.5878 48.0464 38.5717C48.7995 37.6756 49.402 37.0036 49.5526 37.2276C49.5526 37.2276 48.7995 38.1237 47.8958 39.2437C46.9921 40.3638 46.0884 41.2598 45.9378 41.4838C45.9378 41.4838 45.9378 41.4838 46.239 41.4838C46.5403 41.2598 48.6489 39.0197 51.0587 36.5556C54.6735 32.7474 55.5772 31.8513 55.276 31.8513C55.276 31.8513 54.5229 32.5233 53.6192 33.4194L53.4686 33.6434ZM51.6612 35.4355C51.6612 35.4355 49.7032 37.4516 49.7032 37.2276C49.7032 37.2276 50.0044 36.5556 50.4563 36.1076C51.36 35.2115 51.6612 34.9875 51.6612 35.2115V35.4355Z" fill="#777777"/>
<path id="Vector_25" d="M43.5279 43.7239C43.5279 43.7239 43.5279 44.172 43.0761 44.62C42.7749 44.844 42.6242 45.292 42.7749 45.292C42.7749 45.292 43.2267 44.844 43.6786 44.396C44.281 43.724 44.281 43.4999 43.8292 43.4999C43.5279 43.4999 43.3773 43.4999 43.5279 43.7239Z" fill="#777777"/>
<path id="Vector_26" d="M42.0218 58.5088L41.2687 59.6288L42.323 58.7328C42.323 58.7328 43.3773 57.8367 43.3773 57.6127C43.3773 57.1647 42.9255 57.6127 42.1724 58.5088H42.0218Z" fill="#777777"/>
<path id="Vector_27" d="M68.982 35.2115C68.982 35.2115 68.6808 35.6595 68.8314 35.6595C68.8314 35.6595 69.2833 35.4355 69.5845 35.2115C69.8857 34.9875 69.8857 34.7635 69.7351 34.7635C69.7351 34.7635 69.2833 34.9875 68.982 35.2115Z" fill="#777777"/>
<path id="Vector_28" d="M10.0913 39.9158C11.748 40.3638 13.1036 40.3638 11.5974 39.9158C10.9949 39.9158 10.0913 39.6918 9.6394 39.6918C8.88632 39.6918 9.03695 39.6918 9.94064 39.9158H10.0913Z" fill="#777777"/>
<path id="Vector_29" d="M11.8987 45.0681C11.8987 45.0681 14.1579 45.5161 16.7184 45.7401C19.2788 45.9641 21.8393 46.4121 22.5924 46.4121H23.9479H22.743C21.538 46.1881 12.953 45.0681 12.1999 45.0681C11.8986 45.0681 11.8987 45.0681 11.8987 45.0681Z" fill="#777777"/>
<path id="Vector_30" d="M24.8516 46.8601C24.8516 46.8601 26.0565 47.0841 26.3578 47.0841C26.8096 47.0841 26.659 47.0841 26.0565 46.8601C25.6047 46.8601 24.8516 46.6361 24.5504 46.6361C24.0985 46.6361 24.2491 46.6361 24.8516 46.8601Z" fill="#777777"/>
<path id="Vector_31" d="M14.3085 47.3082C15.0616 47.3082 16.2665 47.5322 16.7183 47.5322C17.622 47.5322 17.622 47.5322 16.4171 47.3082C15.664 47.3082 14.4591 47.0842 14.0073 47.0842C13.1036 47.0842 13.1036 47.0842 14.3085 47.3082Z" fill="#777777"/>
<path id="Vector_32" d="M21.3874 48.2042C23.3454 48.6522 25.3034 48.8762 25.9059 48.8762C26.5084 48.8762 25.1528 48.6522 23.1948 48.2042C21.2368 47.7562 19.1282 47.5322 18.6763 47.5322C18.2245 47.5322 19.4294 47.7562 21.3874 48.2042Z" fill="#777777"/>
<path id="Vector_33" d="M12.0493 48.2042C12.0493 48.2042 14.1579 48.6522 15.3628 48.6522H17.6221L15.0616 48.4282C12.1999 47.9801 10.2419 47.7561 12.0493 48.4282V48.2042Z" fill="#777777"/>
<path id="Vector_34" d="M18.827 49.3243C18.827 49.3243 20.4837 49.5483 20.9356 49.5483C21.5381 49.5483 21.5381 49.5483 20.6344 49.3243C20.0319 49.3243 18.9776 49.1003 18.5257 49.1003C17.7727 49.1003 17.7727 49.1003 18.827 49.3243Z" fill="#777777"/>
<path id="Vector_35" d="M12.6517 49.7723C13.4048 49.7723 14.6097 49.9963 15.2122 49.9963C15.9151 49.9963 15.8147 49.9216 14.911 49.7723C14.0073 49.7723 12.953 49.5483 12.3505 49.5483C11.4468 49.5483 11.4468 49.5483 12.6517 49.7723Z" fill="#777777"/>
<path id="Vector_36" d="M29.0688 49.5483C29.0688 49.5483 29.8219 49.5483 30.575 49.7723C31.4787 49.7723 31.7799 49.7723 31.3281 49.7723C30.575 49.5483 28.9182 49.3243 29.0688 49.5483Z" fill="#777777"/>
<path id="Vector_37" d="M20.1825 50.8923C22.2911 51.3404 24.3997 51.5644 24.8516 51.5644C25.3034 51.5644 24.0985 51.3404 21.9899 50.8923C19.8813 50.4443 17.7727 50.2203 17.3208 50.2203C16.869 50.2203 18.0739 50.4443 20.1825 50.8923Z" fill="#777777"/>
<path id="Vector_38" d="M8.13326 51.1164C8.13326 51.1164 9.63941 51.5644 11.2962 51.5644C12.953 51.5644 15.664 52.0124 17.4714 52.2365C21.3874 52.9085 22.743 52.9085 19.2788 52.2365C16.1159 51.5644 8.13324 50.8924 8.28386 51.1164H8.13326Z" fill="#777777"/>
<path id="Vector_39" d="M26.0565 51.5644C26.0565 51.5644 27.1108 51.5644 28.1652 51.7884C29.6713 51.7884 29.8219 51.7884 29.0688 51.7884C28.0145 51.5644 25.9059 51.3404 26.0565 51.7884V51.5644Z" fill="#777777"/>
<path id="Vector_40" d="M14.1579 52.9085C17.1702 53.1325 23.4961 54.0286 28.0145 54.7006C32.9849 55.5966 33.8886 55.5966 30.7256 54.7006C26.8096 53.8045 15.0616 52.2365 13.1036 52.2365C11.8987 52.2365 12.1999 52.2365 14.3085 52.6845L14.1579 52.9085Z" fill="#777777"/>
<path id="Vector_41" d="M23.3454 53.1324C25.0022 53.3565 28.0145 53.5805 27.8639 53.1324C27.8639 53.1324 26.5084 53.1325 24.8516 52.9084C22.8936 52.9084 22.4418 52.9084 23.4961 52.9084L23.3454 53.1324Z" fill="#777777"/>
<path id="Vector_42" d="M31.6293 54.2526C32.9848 54.7006 34.1898 54.4766 32.9849 54.2526C32.533 54.2526 31.7799 54.0286 31.3281 54.0286C30.8762 54.0286 30.8762 54.0286 31.6293 54.2526Z" fill="#777777"/>
<path id="Vector_43" d="M14.1579 54.9246C16.5677 55.1486 23.7973 56.0446 28.3158 56.7167C31.0268 57.1647 33.5873 57.3887 34.0392 57.1647C34.7922 57.1647 34.7922 57.1647 33.7379 57.1647C33.1355 57.1647 31.6293 56.9407 30.575 56.7167C25.9059 55.8206 15.5134 54.7006 14.3085 54.7006C13.1036 54.7006 13.1036 54.7006 14.0073 54.7006L14.1579 54.9246Z" fill="#777777"/>
<path id="Vector_44" d="M18.2245 56.7167C19.58 56.9407 22.1405 57.1647 21.9899 56.7167C21.9899 56.7167 20.785 56.7167 19.4294 56.4927C17.622 56.4927 17.3208 56.4927 18.2245 56.4927V56.7167Z" fill="#777777"/>
<path id="Vector_45" d="M22.1405 57.1647C22.1405 57.1647 23.3454 57.1647 24.701 57.3887C26.5084 57.3887 26.8096 57.3887 25.9059 57.3887C24.5504 57.1647 21.9899 56.9407 22.1405 57.3887V57.1647Z" fill="#777777"/>
<path id="Vector_46" d="M72.2955 52.9085C72.2955 52.9085 71.6931 53.3565 71.0906 53.3565C70.1869 53.3565 65.9697 54.9246 65.2166 55.5966C65.066 55.5966 64.3129 56.0446 63.5598 56.4927C58.1377 58.7328 52.4143 61.4209 42.1724 66.3492C37.8045 68.3653 27.2614 72.8455 24.3997 73.7416C23.3454 73.9656 21.9899 74.1896 21.2368 74.1896C20.0319 74.1896 19.8813 74.1896 18.827 75.5337C17.0196 77.7738 11.2962 83.8221 9.94063 84.7182C7.83201 86.2862 7.22955 88.5264 8.73571 89.1984C9.03694 89.1984 12.3505 89.4224 15.8146 89.1984C20.785 89.1984 22.743 89.1984 23.9479 88.5264C24.8516 88.3023 26.0565 87.8543 26.659 87.8543C28.1651 87.8543 29.8219 87.4063 30.1231 86.9583C30.1231 86.9583 32.0811 86.0622 34.1898 85.1662C36.2984 84.2701 39.4613 82.9261 41.2687 82.03C44.7329 80.2379 51.0587 77.5498 58.5895 74.6376C60.9994 73.7416 64.0117 72.3975 65.2166 71.7255C66.8734 70.6054 72.1449 68.3653 75.7597 67.2452C76.9646 66.7972 77.2659 62.093 76.3622 58.2848C75.6091 55.1486 73.0486 51.7884 72.4462 53.1325L72.2955 52.9085ZM64.4635 63.8851C64.4635 65.0051 64.4635 65.4531 64.1623 65.9012C63.7104 66.5732 61.7524 67.4693 58.7401 68.5893C57.6858 69.0373 56.029 69.7094 55.1254 70.1574C53.4686 71.0534 49.8538 72.6215 48.4983 72.8455C48.197 72.8455 47.5946 73.0695 47.2933 73.2936C46.8415 73.2936 46.8415 73.2935 47.4439 72.6215C48.197 71.7255 48.7995 71.5015 48.4983 71.9495C48.3476 72.3975 48.4983 72.3975 49.402 71.5015C49.8538 71.0534 51.36 70.1574 52.7155 69.4854C54.071 68.8133 55.1253 68.1413 54.9747 68.1413C54.5229 68.1413 50.7575 70.1574 49.7032 70.8294C49.1007 71.2774 48.6489 71.5015 48.4983 71.5015C48.4983 71.2775 53.4686 67.4692 55.8784 66.1252C56.7821 65.6771 57.5352 65.0051 57.3846 64.7811C57.3846 64.7811 57.3846 64.7811 57.5352 64.7811C57.8364 64.7811 59.3426 64.3331 60.5475 63.661C60.8487 63.437 63.4092 62.317 63.7104 62.093C63.7104 62.093 63.8611 62.765 64.0117 63.437L64.4635 63.8851ZM53.4686 67.6933C50.3056 69.7094 47.8958 71.7255 46.6909 73.2936C46.3896 73.5176 45.4859 74.1896 44.7329 74.4136C42.7749 75.3097 34.7922 78.6698 29.5207 81.134C24.8516 83.3741 24.0985 83.3741 24.0985 81.806C24.0985 81.134 24.0985 80.686 24.3997 80.686C24.701 80.686 24.701 80.686 24.5504 80.686C24.5504 80.686 25.0022 80.6859 25.7553 80.2379C27.5627 79.1179 27.8639 79.1179 26.3577 80.2379C25.6047 80.91 25.0022 81.358 25.0022 81.358C25.0022 81.358 25.6047 81.134 26.3577 80.4619C27.1108 79.7899 28.9182 78.6699 30.4244 77.9978C31.9305 77.1018 33.1355 76.4297 33.1355 76.2057C33.1355 75.9817 32.9848 76.2057 32.6836 76.2057C32.3824 76.2057 32.0811 76.4297 31.9305 76.2057C31.7799 76.2057 31.7799 76.2057 31.9305 76.2057C31.9305 76.4297 31.9305 76.6537 31.6293 76.2057C31.3281 76.2057 31.1774 76.2057 31.1774 76.2057V76.6537C30.8762 76.6537 30.1231 76.6537 29.5207 76.8778C29.2194 76.8778 29.0688 76.8777 29.3701 77.3258C29.5207 77.3258 29.3701 77.5498 29.0688 77.5498C28.7676 77.5498 28.1651 77.5498 27.8639 77.7738C27.4121 77.7738 27.4121 77.7738 27.8639 77.5498C29.0688 76.6537 27.5627 77.3258 25.9059 78.4458C24.2491 79.5659 24.0985 79.5659 24.2491 79.1179V78.6698C24.0985 78.6698 23.9479 78.6698 24.0985 78.4458C24.3997 77.9978 28.4664 76.6537 29.0688 76.6537C29.3701 76.6537 29.6713 76.6537 29.6713 76.4297C29.6713 76.4297 29.6713 76.4297 30.1231 76.4297C30.4244 76.4297 30.575 76.4297 30.4244 76.4297C30.4244 76.2057 30.4244 75.9817 30.575 76.4297C30.7256 76.4297 31.0268 76.4297 31.0268 76.4297C31.0268 76.4297 31.3281 75.9817 31.6293 75.9817C31.9305 75.9817 34.7922 74.6376 37.8045 73.5176C45.0341 70.3814 50.9081 68.1413 50.9081 68.3653C50.9081 68.3653 50.0044 69.0373 48.6489 69.9334C46.3896 71.2774 44.5822 72.8455 44.7329 72.8455C44.7329 72.8455 46.5402 71.7255 48.6489 70.3814C52.5649 67.6933 56.4809 65.4531 57.0834 65.4531C57.234 65.4531 55.8784 66.3492 54.071 67.6933H53.4686ZM33.5873 71.9495C33.5873 71.9495 33.2861 71.9495 33.1355 71.9495C33.4367 71.9495 33.5873 71.9495 33.4367 71.9495H33.5873ZM31.4787 72.8455C30.7256 73.2936 29.6713 73.5176 29.2194 73.7416C28.7676 73.7416 29.2194 73.7416 30.2737 73.0695C31.3281 72.6215 32.3824 72.1735 32.533 72.1735C32.6836 72.1735 32.2318 72.3975 31.4787 72.8455ZM28.1651 73.9656C28.1651 73.9656 27.8639 73.9656 27.7133 73.9656C28.0145 73.9656 28.1651 73.9656 28.0145 73.9656H28.1651ZM27.2614 74.4136C27.2614 74.4136 26.9602 74.4136 26.8096 74.4136C27.1108 74.4136 27.2614 74.4136 27.1108 74.4136H27.2614ZM20.9356 75.9817L21.2368 76.6537C21.2368 76.6537 19.8813 77.9978 18.0739 79.1179C16.4171 80.4619 15.2122 81.134 15.3628 80.91C18.3751 77.7738 20.3331 75.5337 20.4837 75.5337C20.4837 75.5337 20.785 75.5337 20.9356 75.9817ZM21.538 77.9978C21.538 77.9978 21.538 78.8938 21.538 79.1179C20.6343 80.0139 14.1579 83.5981 13.8566 83.5981C13.5554 83.5981 13.5554 83.5981 13.8566 83.1501C14.1579 83.1501 14.911 82.4781 15.664 81.806C16.4171 81.358 17.7726 80.2379 18.9776 79.7899C20.0319 79.1179 20.9356 78.6698 20.785 78.4458C20.785 78.4458 20.1825 78.4458 19.58 79.1179C18.9776 79.5659 18.3751 79.7899 18.3751 79.7899C18.2245 79.7899 21.2368 77.3258 21.3874 77.3258C21.3874 77.3258 21.538 77.7738 21.6887 77.9978H21.538ZM28.4664 78.8939C28.4664 78.8939 27.4121 79.3419 27.8639 78.8939C28.0145 78.8939 28.3157 78.6698 28.617 78.6698C28.9182 78.6698 28.7676 78.6698 28.617 78.8939H28.4664ZM22.5924 81.582C23.0442 84.9422 23.0442 85.6142 22.743 86.0622C22.5923 86.5103 21.538 86.7343 18.5257 86.7343H14.6097L14.7603 85.8382C14.7603 85.1662 15.0616 84.4942 15.0616 84.4942C15.0616 84.4942 16.5677 83.5981 18.2245 82.9261C19.7307 82.254 21.2368 81.582 21.538 81.358C21.8393 81.134 21.8393 81.134 21.538 81.358C19.58 82.254 15.2122 84.0461 14.9109 83.8221C14.9109 83.8221 15.8146 82.9261 17.3208 82.254C18.827 81.582 20.4837 80.4619 21.0862 80.0139C22.4417 79.1179 22.4417 79.1179 22.743 81.806L22.5924 81.582ZM26.0565 79.5659C26.0565 79.5659 25.0022 80.2379 24.8516 80.2379C24.8516 80.2379 25.0022 80.0139 25.6047 79.5659C26.0565 79.1179 26.659 78.8939 26.8096 78.8939C26.8096 78.8939 26.659 79.1179 26.0565 79.5659ZM39.1601 81.358C38.2564 82.03 30.7256 85.6142 29.9725 85.6142C29.5207 85.6142 29.2194 85.6142 29.2194 85.6142C29.3701 85.3902 38.5576 81.358 39.0095 81.358C39.3107 81.358 39.3107 81.358 39.0095 81.582L39.1601 81.358ZM11.8986 86.7343C11.8986 86.7343 11.8986 87.1823 11.4468 87.1823C10.9949 87.1823 10.8443 87.1823 10.9949 86.7343C10.9949 86.7343 11.2962 86.2863 11.4468 86.2863C11.5974 86.2863 11.8986 86.2862 11.8986 86.7343Z" fill="#777777"/>
<path id="Vector_47" d="M56.3303 67.9172C55.5772 68.3653 55.5772 68.3653 56.3303 68.1412C56.7821 68.1412 57.0834 67.6932 57.234 67.6932C57.5352 67.2452 57.3846 67.2452 56.4809 67.9172H56.3303Z" fill="#777777"/>
</g>
</svg>
