<svg width="19" height="20" viewBox="0 0 19 20" fill="none" xmlns="http://www.w3.org/2000/svg">
<g id="icon log out">
<path id="Vector" d="M10.4334 1.11217C10.4334 0.817202 10.3113 0.534318 10.0939 0.325746C9.87645 0.117174 9.58158 0 9.27411 0C8.96665 0 8.67177 0.117174 8.45436 0.325746C8.23695 0.534318 8.11481 0.817202 8.11481 1.11217L8.11133 10.0128C8.11133 10.3078 8.23347 10.5907 8.45088 10.7993C8.66829 11.0078 8.96317 11.125 9.27064 11.125C9.5781 11.125 9.87298 11.0078 10.0904 10.7993C10.3078 10.5907 10.4299 10.3078 10.4299 10.0128L10.4334 1.11328V1.11217Z" fill="black"/>
<path id="Vector_2" d="M0 11.1031C0 8.64516 1.03758 6.42083 2.71626 4.81152L4.35552 6.38413C3.38268 7.31735 2.72015 8.50636 2.45172 9.80081C2.18329 11.0953 2.32101 12.437 2.84747 13.6564C3.37393 14.8757 4.26548 15.9179 5.40937 16.6512C6.55326 17.3844 7.89812 17.7758 9.27388 17.7758C10.6496 17.7758 11.9945 17.3844 13.1384 16.6512C14.2823 15.9179 15.1738 14.8757 15.7003 13.6564C16.2267 12.437 16.3645 11.0953 16.096 9.80081C15.8276 8.50636 15.1651 7.31735 14.1922 6.38413L15.8327 4.81152C16.9111 5.84616 17.7069 7.11997 18.1496 8.52012C18.5923 9.92028 18.6682 11.4036 18.3707 12.8386C18.0731 14.2736 17.4113 15.6161 16.4437 16.7472C15.4761 17.8782 14.2328 18.7629 12.8237 19.3228C11.4146 19.8827 9.88335 20.1006 8.36552 19.9572C6.8477 19.8138 5.39016 19.3136 4.12201 18.5007C2.85386 17.6878 1.81424 16.5875 1.09524 15.2971C0.376243 14.0068 5.55753e-05 12.5662 0 11.1031Z" fill="black"/>
</g>
</svg>
