<svg width="24" height="24" viewBox="0 0 24 24" fill="none" xmlns="http://www.w3.org/2000/svg">
  <g clip-path="url(#clip0_1285_733)">
    <rect width="24" height="24" rx="5" fill="#777777" />
    <path d="M7.2 7H16.8C17.46 7 18 7.5625 18 8.25V15.75C18 16.4375 17.46 17 16.8 17H7.2C6.54 17 6 16.4375 6 15.75V8.25C6 7.5625 6.54 7 7.2 7Z" stroke="white" stroke-linecap="round" stroke-linejoin="round" />
    <path d="M18 9L12 13L6 9" stroke="white" stroke-linecap="round" stroke-linejoin="round" />
    <g filter="url(#filter0_d_1285_733)">
      <path d="M20.4 0H3.6C1.61178 0 0 1.61178 0 3.6V20.4C0 22.3882 1.61178 24 3.6 24H20.4C22.3882 24 24 22.3882 24 20.4V3.6C24 1.61178 22.3882 0 20.4 0Z" fill="white" />
      <path d="M18.0938 18.7499C20.2031 16.7812 21.1406 13.4999 20.5781 10.3593H12.1875V13.828H16.9688C16.7812 14.953 16.125 15.8905 15.1875 16.4999L18.0938 18.7499Z" fill="#4285F4" />
      <path d="M4.21875 15.9844C4.83539 17.1991 5.71974 18.258 6.80512 19.0812C7.89051 19.9044 9.14861 20.4705 10.4846 20.7368C11.8206 21.0031 13.1996 20.9627 14.5177 20.6185C15.8357 20.2744 17.0585 19.6355 18.0938 18.75L15.1875 16.5C12.7031 18.1406 8.57812 17.5313 7.17188 13.6875L4.21875 15.9844Z" fill="#34A853" />
      <path d="M7.172 13.6875C6.797 12.5156 6.797 11.4375 7.172 10.2656L4.21887 7.96874C3.14075 10.125 2.81262 13.1719 4.21887 15.9844L7.172 13.6875Z" fill="#FBBC02" />
      <path d="M7.17188 10.2655C8.20312 7.03111 12.6094 5.15611 15.5625 7.92173L18.1406 5.39048C14.4844 1.87486 7.35938 2.01548 4.21875 7.96861L7.17188 10.2655Z" fill="#EA4335" />
    </g>
  </g>
  <defs>
    <filter id="filter0_d_1285_733" x="-4" y="0" width="32" height="32" filterUnits="userSpaceOnUse" color-interpolation-filters="sRGB">
      <feFlood flood-opacity="0" result="BackgroundImageFix" />
      <feColorMatrix in="SourceAlpha" type="matrix" values="0 0 0 0 0 0 0 0 0 0 0 0 0 0 0 0 0 0 127 0" result="hardAlpha" />
      <feOffset dy="4" />
      <feGaussianBlur stdDeviation="2" />
      <feComposite in2="hardAlpha" operator="out" />
      <feColorMatrix type="matrix" values="0 0 0 0 0 0 0 0 0 0 0 0 0 0 0 0 0 0 0.25 0" />
      <feBlend mode="normal" in2="BackgroundImageFix" result="effect1_dropShadow_1285_733" />
      <feBlend mode="normal" in="SourceGraphic" in2="effect1_dropShadow_1285_733" result="shape" />
    </filter>
    <clipPath id="clip0_1285_733">
      <rect width="24" height="24" rx="5" fill="white" />
    </clipPath>
  </defs>
</svg>