<svg width="22" height="24" viewBox="0 0 22 24" fill="none" xmlns="http://www.w3.org/2000/svg">
<rect width="22" height="24" rx="5" fill="white"/>
<g clip-path="url(#clip0_1285_744)">
<path d="M7.85742 15.5968C8.47781 16.2533 9.10853 17.0762 9.4394 17.5752C9.84265 18.223 10.0081 18.6607 10.3079 19.4398C10.4837 19.8687 10.6491 20 11.0007 20C11.3833 20 11.559 19.7812 11.6935 19.4398C11.9726 18.7044 12.1898 18.1442 12.531 17.6102C13.2031 16.586 14.0509 15.6756 14.8781 14.8002C15.1056 14.5551 16.5531 13.1107 17.2045 11.964C17.2045 11.964 18.0007 10.7122 18.0007 8.96138C18.0007 7.32441 17.2149 6.18641 17.2149 6.18641L14.9401 6.70289L13.5546 9.78425L13.2134 10.2044L13.141 10.2832L13.048 10.3795L12.8929 10.5371L12.6654 10.7297L11.435 11.5788L8.36407 13.0845L7.85742 15.5968Z" fill="#34A853"/>
<path d="M4.68164 11.7539C5.43644 13.207 6.87366 14.4763 7.85594 15.5968L13.0568 10.3795C13.0568 10.3795 12.3227 11.1936 10.9992 11.1936C9.52064 11.1936 8.32123 10.1957 8.32123 8.93512C8.32123 8.06848 8.93127 7.47322 8.93127 7.47322L5.40542 8.26982L4.68164 11.7539Z" fill="#FBBC04"/>
<path d="M13.1192 3.27137C14.846 3.74408 16.3246 4.73326 17.2138 6.19516L13.0572 10.3883C13.0572 10.3883 13.6672 9.78424 13.6672 8.92636C13.6672 7.63955 12.3851 6.66787 10.9996 6.66787C9.68644 6.66787 8.93164 7.47322 8.93164 7.47322V4.82956L13.1192 3.27137Z" fill="#4285F4"/>
<path d="M5.63281 5.11843C6.66679 4.07673 8.47624 3 10.9785 3C12.1882 3 13.1084 3.27137 13.1084 3.27137L8.93119 7.47322H5.97402L5.63281 5.11843Z" fill="#1A73E8"/>
<path d="M4.68242 11.7539C4.68242 11.7539 4 10.6071 4 8.95263C4 7.38569 4.72378 6.02008 5.64402 5.12719L8.94239 7.48198L4.68242 11.7539Z" fill="#EA4335"/>
</g>
<defs>
<clipPath id="clip0_1285_744">
<rect width="14" height="17" fill="white" transform="translate(4 3)"/>
</clipPath>
</defs>
</svg>
