<svg width="43" height="43" viewBox="0 0 43 43" fill="none" xmlns="http://www.w3.org/2000/svg">
<g id="&#240;&#159;&#166;&#134; icon &#34;facebook&#34;" filter="url(#filter0_d_345_102)">
<path id="Vector" d="M33.75 0H9.25C6.35051 0 4 2.35051 4 5.25V29.75C4 32.6495 6.35051 35 9.25 35H33.75C36.6495 35 39 32.6495 39 29.75V5.25C39 2.35051 36.6495 0 33.75 0Z" fill="#007AFF"/>
<path id="Vector_2" d="M28.3086 22.5586L29.0879 17.5H24.2344V14.2188C24.2344 12.8379 24.9111 11.4844 27.085 11.4844H29.293V7.17773C29.293 7.17773 27.29 6.83594 25.376 6.83594C21.377 6.83594 18.7656 9.25586 18.7656 13.6445V17.5H14.3223V22.5586H18.7656V35H24.2344V22.5586H28.3086Z" fill="white"/>
</g>
<defs>
<filter id="filter0_d_345_102" x="0" y="0" width="43" height="43" filterUnits="userSpaceOnUse" color-interpolation-filters="sRGB">
<feFlood flood-opacity="0" result="BackgroundImageFix"/>
<feColorMatrix in="SourceAlpha" type="matrix" values="0 0 0 0 0 0 0 0 0 0 0 0 0 0 0 0 0 0 127 0" result="hardAlpha"/>
<feOffset dy="4"/>
<feGaussianBlur stdDeviation="2"/>
<feComposite in2="hardAlpha" operator="out"/>
<feColorMatrix type="matrix" values="0 0 0 0 0 0 0 0 0 0 0 0 0 0 0 0 0 0 0.25 0"/>
<feBlend mode="normal" in2="BackgroundImageFix" result="effect1_dropShadow_345_102"/>
<feBlend mode="normal" in="SourceGraphic" in2="effect1_dropShadow_345_102" result="shape"/>
</filter>
</defs>
</svg>
